<svg xmlns="http://www.w3.org/2000/svg" viewBox="0 0 23.47 21.69"><defs><style>.cls-1{fill:#fff;}</style></defs><title>right-call</title><g id="Layer_2" data-name="Layer 2"><g id="Layer_1-2" data-name="Layer 1"><path class="cls-1" d="M4.18,0a.85.85,0,0,0,.16,0c1-.16,1.41.35,1.73,1.16.5,1.3,1,2.58,1.61,3.84a1.65,1.65,0,0,1-.22,1.83c-.37.49-.77,1-1.17,1.42a.82.82,0,0,0-.14,1.17,15.51,15.51,0,0,0,6.51,6.15c.46.22.93.43,1.4.63a.89.89,0,0,0,1.27-.32q.81-1,1.59-1.95c.5-.64.78-.73,1.52-.39,1.51.7,3,1.42,4.51,2.13a.88.88,0,0,1,.52.88A4.53,4.53,0,0,1,20.57,21a5.72,5.72,0,0,1-4.35.39c-1.76-.61-3.55-1.19-5.25-2a16.85,16.85,0,0,1-5.12-3.79,26.08,26.08,0,0,1-5-6.93A7,7,0,0,1,.44,3.07,6.38,6.38,0,0,1,2.36.43C2.8.06,3.16,0,4.18,0Z"/></g></g></svg>