<svg xmlns="http://www.w3.org/2000/svg" width="16" height="16" fill="none" viewBox="0 0 16 16"><g id="Group"><path id="Vector 2186 (Stroke)" fill="#D8D8D8" fill-rule="evenodd" d="M0 2.694A2.694 2.694 0 0 1 2.695 0H5.05c.75 0 1.403.51 1.585 1.237l.621 2.488a1.632 1.632 0 0 1-1.068 1.944l-1.176.392a.712.712 0 0 0-.472.816 5.845 5.845 0 0 0 4.584 4.585c.35.07.7-.131.813-.472l.316-.948a1.634 1.634 0 0 1 2.281-.944l2.563 1.281c.554.277.903.843.903 1.46v1.467A2.694 2.694 0 0 1 13.305 16h-2.122C5.005 16 0 10.992 0 4.816V2.694Zm2.695-1.551a1.55 1.55 0 0 0-1.55 1.55v2.123c0 5.547 4.496 10.041 10.038 10.041h2.122a1.55 1.55 0 0 0 1.55-1.55v-1.468a.49.49 0 0 0-.27-.438L12.02 10.12a.488.488 0 0 0-.681.283l-.316.948a1.856 1.856 0 0 1-2.125 1.233A6.989 6.989 0 0 1 3.416 7.1 1.855 1.855 0 0 1 4.65 4.977l1.176-.392a.49.49 0 0 0 .32-.584l-.622-2.487a.489.489 0 0 0-.473-.371H2.695Z" clip-rule="evenodd"/></g></svg>