<?xml version="1.0" encoding="utf-8"?>
<!-- Generator: Adobe Illustrator 16.0.0, SVG Export Plug-In . SVG Version: 6.00 Build 0)  -->
<!DOCTYPE svg PUBLIC "-//W3C//DTD SVG 1.1//EN" "http://www.w3.org/Graphics/SVG/1.1/DTD/svg11.dtd">
<svg version="1.1" id="Layer_1" xmlns="http://www.w3.org/2000/svg" xmlns:xlink="http://www.w3.org/1999/xlink" x="0px" y="0px"
	 width="120px" height="120px" viewBox="0 0 120 120" enable-background="new 0 0 120 120" xml:space="preserve">
<g>
	<path fill="#72CDDA" d="M27.675,26.901h-13.01c-0.706,0-1.298,0.565-1.298,1.271v14.024c0,0.706,0.592,1.299,1.298,1.299h13.01
		c0.706,0,1.298-0.594,1.298-1.299V28.171C28.973,27.466,28.38,26.901,27.675,26.901z M26.377,40.897H15.963V29.469h10.414V40.897z"
		/>
	<path fill="#72CDDA" d="M27.675,50.943h-13.01c-0.706,0-1.298,0.592-1.298,1.298v13.995c0,0.735,0.592,1.301,1.298,1.301h13.01
		c0.706,0,1.298-0.565,1.298-1.301V52.241C28.973,51.536,28.38,50.943,27.675,50.943z M26.377,64.969H15.963V53.538h10.414V64.969z"
		/>
	<path fill="#72CDDA" d="M27.675,75.016h-13.01c-0.706,0-1.298,0.563-1.298,1.269v14.026c0,0.705,0.592,1.295,1.298,1.295h13.01
		c0.706,0,1.298-0.59,1.298-1.295V76.284C28.973,75.578,28.38,75.016,27.675,75.016z M26.377,89.01H15.963V77.582h10.414V89.01z"/>
	<path fill="#72CDDA" d="M51.746,26.901h-13.01c-0.706,0-1.298,0.565-1.298,1.271v14.024c0,0.706,0.592,1.299,1.298,1.299h13.01
		c0.706,0,1.271-0.594,1.271-1.299V28.171C53.017,27.466,52.452,26.901,51.746,26.901z M50.448,40.897H40.007V29.469h10.441V40.897z
		"/>
	<path fill="#72CDDA" d="M51.746,50.943h-13.01c-0.706,0-1.298,0.592-1.298,1.298v13.995c0,0.735,0.592,1.301,1.298,1.301h13.01
		c0.706,0,1.271-0.565,1.271-1.301V52.241C53.017,51.536,52.452,50.943,51.746,50.943z M50.448,64.969H40.007V53.538h10.441V64.969z
		"/>
	<path fill="#72CDDA" d="M51.746,75.016h-13.01c-0.706,0-1.298,0.563-1.298,1.269v14.026c0,0.705,0.592,1.295,1.298,1.295h13.01
		c0.706,0,1.271-0.59,1.271-1.295V76.284C53.017,75.578,52.452,75.016,51.746,75.016z M50.448,89.01H40.007V77.582h10.441V89.01z"/>
	<path fill="#010101" d="M64.839,2.266H2.617c-0.705,0-1.27,0.565-1.27,1.298V116.44c0,0.705,0.565,1.295,1.27,1.295h62.222
		c0.732,0,1.297-0.59,1.297-1.295V3.564C66.136,2.831,65.571,2.266,64.839,2.266z M3.915,4.834h59.652V115.17H3.915V4.834z"/>
	<path fill="#EABA5E" d="M3.915,4.834V115.17h59.652V4.834H3.915z M28.973,90.311c0,0.705-0.592,1.295-1.298,1.295h-13.01
		c-0.706,0-1.298-0.59-1.298-1.295V76.284c0-0.706,0.592-1.269,1.298-1.269h13.01c0.706,0,1.298,0.563,1.298,1.269V90.311z
		 M28.973,66.236c0,0.735-0.592,1.301-1.298,1.301h-13.01c-0.706,0-1.298-0.565-1.298-1.301V52.241c0-0.706,0.592-1.298,1.298-1.298
		h13.01c0.706,0,1.298,0.592,1.298,1.298V66.236z M28.973,42.195c0,0.706-0.592,1.299-1.298,1.299h-13.01
		c-0.706,0-1.298-0.594-1.298-1.299V28.171c0-0.706,0.592-1.271,1.298-1.271h13.01c0.706,0,1.298,0.565,1.298,1.271V42.195z
		 M53.017,90.311c0,0.705-0.565,1.295-1.271,1.295h-13.01c-0.706,0-1.298-0.59-1.298-1.295V76.284c0-0.706,0.592-1.269,1.298-1.269
		h13.01c0.706,0,1.271,0.563,1.271,1.269V90.311z M53.017,66.236c0,0.735-0.565,1.301-1.271,1.301h-13.01
		c-0.706,0-1.298-0.565-1.298-1.301V52.241c0-0.706,0.592-1.298,1.298-1.298h13.01c0.706,0,1.271,0.592,1.271,1.298V66.236z
		 M53.017,42.195c0,0.706-0.565,1.299-1.271,1.299h-13.01c-0.706,0-1.298-0.594-1.298-1.299V28.171c0-0.706,0.592-1.271,1.298-1.271
		h13.01c0.706,0,1.271,0.565,1.271,1.271V42.195z"/>
	<path fill="#010101" d="M117.354,49.223H64.839c-0.705,0-1.271,0.564-1.271,1.298v65.92c0,0.705,0.566,1.295,1.271,1.295h52.516
		c0.705,0,1.299-0.59,1.299-1.295v-65.92C118.653,49.787,118.06,49.223,117.354,49.223z M116.056,115.17h-49.92V51.791h49.92V115.17
		z"/>
	<path fill="#D7E265" d="M116.056,51.791v63.379H99.858V84.893c0-0.705-0.564-1.301-1.27-1.301H83.632
		c-0.732,0-1.297,0.596-1.297,1.301v30.277H66.136V51.791H116.056z"/>
	<g>
		<path fill="#010101" d="M98.589,83.592H83.632c-0.732,0-1.297,0.596-1.297,1.301v31.548c0,0.705,0.564,1.295,1.297,1.295h14.957
			c0.705,0,1.27-0.59,1.27-1.295V84.893C99.858,84.188,99.294,83.592,98.589,83.592z M84.903,115.17V86.16H97.29v29.01H84.903z"/>
		<rect x="84.903" y="86.16" fill="#010101" width="12.387" height="29.01"/>
	</g>
	<g>
		<path fill="#010101" d="M27.675,26.901h-13.01c-0.706,0-1.298,0.565-1.298,1.271v14.024c0,0.706,0.592,1.299,1.298,1.299h13.01
			c0.706,0,1.298-0.594,1.298-1.299V28.171C28.973,27.466,28.38,26.901,27.675,26.901z M26.377,40.897H15.963V29.469h10.414V40.897z
			"/>
		<rect x="15.963" y="29.469" fill="#72CDDA" width="10.414" height="11.428"/>
	</g>
	<g>
		<path fill="#010101" d="M51.746,26.901h-13.01c-0.706,0-1.298,0.565-1.298,1.271v14.024c0,0.706,0.592,1.299,1.298,1.299h13.01
			c0.706,0,1.271-0.594,1.271-1.299V28.171C53.017,27.466,52.452,26.901,51.746,26.901z M50.448,40.897H40.007V29.469h10.441V40.897
			z"/>
		<rect x="40.007" y="29.469" fill="#72CDDA" width="10.441" height="11.428"/>
	</g>
	<g>
		<path fill="#010101" d="M27.675,50.943h-13.01c-0.706,0-1.298,0.592-1.298,1.298v13.995c0,0.735,0.592,1.301,1.298,1.301h13.01
			c0.706,0,1.298-0.565,1.298-1.301V52.241C28.973,51.536,28.38,50.943,27.675,50.943z M26.377,64.969H15.963V53.538h10.414V64.969z
			"/>
		<rect x="15.963" y="53.538" fill="#72CDDA" width="10.414" height="11.431"/>
	</g>
	<g>
		<path fill="#010101" d="M51.746,50.943h-13.01c-0.706,0-1.298,0.592-1.298,1.298v13.995c0,0.735,0.592,1.301,1.298,1.301h13.01
			c0.706,0,1.271-0.565,1.271-1.301V52.241C53.017,51.536,52.452,50.943,51.746,50.943z M50.448,64.969H40.007V53.538h10.441V64.969
			z"/>
		<rect x="40.007" y="53.538" fill="#72CDDA" width="10.441" height="11.431"/>
	</g>
	<g>
		<path fill="#010101" d="M27.675,75.016h-13.01c-0.706,0-1.298,0.563-1.298,1.269v14.026c0,0.705,0.592,1.295,1.298,1.295h13.01
			c0.706,0,1.298-0.59,1.298-1.295V76.284C28.973,75.578,28.38,75.016,27.675,75.016z M26.377,89.01H15.963V77.582h10.414V89.01z"/>
		<rect x="15.963" y="77.582" fill="#72CDDA" width="10.414" height="11.428"/>
	</g>
	<g>
		<path fill="#010101" d="M51.746,75.016h-13.01c-0.706,0-1.298,0.563-1.298,1.269v14.026c0,0.705,0.592,1.295,1.298,1.295h13.01
			c0.706,0,1.271-0.59,1.271-1.295V76.284C53.017,75.578,52.452,75.016,51.746,75.016z M50.448,89.01H40.007V77.582h10.441V89.01z"
			/>
		<rect x="40.007" y="77.582" fill="#72CDDA" width="10.441" height="11.428"/>
	</g>
</g>
</svg>
