<?xml version="1.0" encoding="utf-8"?>
<!-- Generator: Adobe Illustrator 16.0.0, SVG Export Plug-In . SVG Version: 6.00 Build 0)  -->
<!DOCTYPE svg PUBLIC "-//W3C//DTD SVG 1.1//EN" "http://www.w3.org/Graphics/SVG/1.1/DTD/svg11.dtd">
<svg version="1.1" id="Layer_1" xmlns="http://www.w3.org/2000/svg" xmlns:xlink="http://www.w3.org/1999/xlink" x="0px" y="0px"
	 width="120px" height="120px" viewBox="0 0 120 120" enable-background="new 0 0 120 120" xml:space="preserve">
<g>
	<path fill="#010101" d="M111.122,101.134h-10.278c-0.572-5.313-5.518-9.87-12.912-12.549l1.762-6.341l3.984-14.242
		c0.367-1.306-0.642-2.679-2.289-3.137c-1.65-0.459-3.229,0.207-3.596,1.486l-4.257,15.296l-1.489,5.335
		c-3.045-0.619-6.318-0.962-9.775-0.962c-5.313,0-10.213,0.778-14.426,2.153l0.252-4.763l2.655-50.074h-8.952l4.464-20.926
		l14.973,2.29c0.645,0.091,1.217-0.344,1.306-0.962c0.116-0.641-0.319-1.213-0.938-1.305l-16.072-2.45
		c-0.618-0.091-1.167,0.297-1.282,0.892l-4.785,22.461H34.401c-0.55-7.395-6.709-13.233-14.218-13.233
		c-7.876,0-14.287,6.41-14.287,14.264c0,7.784,6.25,14.104,13.99,14.264l3.114,58.314h25.666c6.548,1.189,14.287,1.901,22.048,1.901
		c16.279,0,29.306-2.106,35.03-5.608h5.379c0.573,0,1.033-0.482,1.033-1.055C112.155,101.611,111.695,101.134,111.122,101.134z
		 M85.664,81.807l4.146-14.858c0.067-0.091,0.456-0.229,1.007-0.069c0.572,0.161,0.822,0.483,0.845,0.551l-4.052,14.56l-1.647,5.932
		c-0.619-0.183-1.236-0.344-1.876-0.503L85.664,81.807z M72.271,88.103c13.988,0,25.458,5.771,26.467,13.031H45.803
		C46.81,93.873,58.281,88.103,72.271,88.103z M19.679,44.693l0.092,1.625C13.36,46.091,8.185,40.848,8.185,34.368
		c0-6.594,5.381-11.974,11.998-11.974c6.25,0,11.333,4.831,11.86,10.943H19.084L19.679,44.693z M24.991,104.863l-3.229-60.352
		l-0.481-9.09h28.711c0.068,0.022,0.114,0.068,0.16,0.068c0.092,0.024,0.161,0.024,0.251,0.024c0.161,0,0.298-0.046,0.436-0.092
		h7.715l-2.587,48.515l-0.275,4.993c-6.869,2.724-11.448,7.097-11.997,12.204H31.722c-0.572,0-1.031,0.478-1.031,1.051
		c0,0.572,0.458,1.055,1.031,1.055h4.099c1.213,0.572,2.609,1.12,4.19,1.624H24.991z M70.713,106.741
		c-11.928,0-22.186-1.602-28.825-3.502h58.773C94.134,105.436,83.306,106.741,70.713,106.741z"/>
	<path fill="#F2F2F2" d="M100.661,103.239c-6.527,2.196-17.355,3.502-29.948,3.502c-11.928,0-22.186-1.602-28.825-3.502H100.661z"/>
	<path fill="#F2F2F2" d="M91.661,67.43l-4.052,14.56l-1.647,5.932c-0.619-0.183-1.236-0.344-1.876-0.503l1.578-5.611l4.146-14.858
		c0.067-0.091,0.456-0.229,1.007-0.069C91.389,67.04,91.639,67.362,91.661,67.43z"/>
	<path fill="#D7E265" d="M98.738,101.134H45.803c1.007-7.261,12.479-13.031,26.469-13.031
		C86.26,88.103,97.729,93.873,98.738,101.134z"/>
	<path fill="#E28726" d="M57.205,60.881l-1.237,23.055l-0.275,4.993c-6.869,2.724-11.448,7.097-11.997,12.204H31.722
		c-0.572,0-1.031,0.478-1.031,1.051c0,0.572,0.458,1.055,1.031,1.055h4.099c1.213,0.572,2.609,1.12,4.19,1.624h-15.02l-2.405-45.013
		c4.694-1.763,11.15-3.021,17.333-0.435C46.215,62.026,52.558,61.683,57.205,60.881z"/>
	<path fill="#EDD974" d="M19.679,44.693l0.092,1.625C13.36,46.091,8.185,40.848,8.185,34.368c0-6.594,5.381-11.974,11.998-11.974
		c6.25,0,11.333,4.831,11.86,10.943H19.084L19.679,44.693z"/>
	<path fill="#F2F2F2" d="M58.555,35.421l-1.35,25.46c-4.647,0.801-10.99,1.145-17.286-1.465c-6.182-2.587-12.638-1.328-17.333,0.435
		l-0.824-15.339l-0.481-9.09h28.711c0.068,0.022,0.114,0.068,0.16,0.068c0.092,0.024,0.161,0.024,0.251,0.024
		c0.161,0,0.298-0.046,0.436-0.092H58.555z"/>
</g>
</svg>
