<?xml version="1.0" encoding="utf-8"?>
<!-- Generator: Adobe Illustrator 16.0.0, SVG Export Plug-In . SVG Version: 6.00 Build 0)  -->
<!DOCTYPE svg PUBLIC "-//W3C//DTD SVG 1.1//EN" "http://www.w3.org/Graphics/SVG/1.1/DTD/svg11.dtd">
<svg version="1.1" id="Layer_1" xmlns="http://www.w3.org/2000/svg" xmlns:xlink="http://www.w3.org/1999/xlink" x="0px" y="0px"
	 width="120px" height="120px" viewBox="0 0 120 120" enable-background="new 0 0 120 120" xml:space="preserve">
<g>
	<path fill="#B3E0E1" d="M22.793,35.326v19.492H4.758V44.043c0-4.819,3.898-8.717,8.718-8.717H22.793z"/>
	<rect x="24.764" y="35.326" fill="#B3E0E1" width="17.909" height="19.492"/>
	<rect x="44.621" y="35.326" fill="#B3E0E1" width="17.928" height="19.492"/>
	<rect x="64.498" y="35.326" fill="#B3E0E1" width="17.928" height="19.492"/>
	<path fill="#B3E0E1" d="M115.051,56.768v7.731H97.27c-0.49-5.418-5.053-9.681-10.621-9.681h-2.271V35.326h6.061
		C110.938,35.326,115.051,43.529,115.051,56.768z"/>
	<path fill="#DC4629" d="M95.301,64.499H4.758v-7.731h81.891C91.123,56.768,94.809,60.152,95.301,64.499z"/>
	<path fill="#DC4629" d="M115.051,66.448v9.02c0,4.584-3.576,8.376-8.098,8.696c-0.492-4.563-4.369-8.118-9.061-8.118
		s-8.566,3.577-9.061,8.139H41.986c-0.493-4.562-4.37-8.139-9.06-8.139c-4.712,0-8.589,3.577-9.082,8.139h-2.72L4.758,79.58V66.448
		H115.051z"/>
	<g>
		<path fill="#010101" d="M90.74,85.149c0,0.535-0.432,0.985-0.988,0.985H41.044c-0.536,0-0.963-0.45-0.963-0.985
			c0-0.536,0.428-0.965,0.963-0.965h48.708C90.309,84.185,90.74,84.613,90.74,85.149z"/>
	</g>
	<g>
		<path fill="#010101" d="M117,56.768v18.7c0,5.654-4.436,10.303-10.023,10.622c-0.217,0.045-0.432,0.045-0.645,0.045
			c-0.535,0-0.986-0.45-0.986-0.985c0-0.536,0.451-0.965,0.986-0.965c0.213,0,0.428,0,0.621-0.021
			c4.521-0.32,8.098-4.112,8.098-8.696v-18.7c0-13.238-4.113-21.441-24.613-21.441H13.476c-4.82,0-8.718,3.898-8.718,8.717V79.58
			l16.366,4.604h3.663c0.536,0,0.964,0.429,0.964,0.965c0,0.535-0.429,0.985-0.964,0.985h-3.813c-0.084,0-0.17-0.021-0.256-0.045
			L3.516,81.25c-0.428-0.106-0.707-0.491-0.707-0.92V44.043c0-5.89,4.776-10.688,10.667-10.688h76.962
			C113.787,33.355,117,44.601,117,56.768z"/>
	</g>
	<g>
		<path fill="#010101" d="M117,65.486c0,0.535-0.451,0.962-0.986,0.962H96.35c-0.535,0-0.982-0.427-0.982-0.962
			c0-0.343-0.023-0.665-0.066-0.987c-0.492-4.347-4.178-7.731-8.652-7.731H3.773c-0.536,0-0.964-0.429-0.964-0.985
			c0-0.536,0.429-0.964,0.964-0.964h82.875c5.568,0,10.131,4.263,10.621,9.681h18.744C116.549,64.499,117,64.95,117,65.486z"/>
	</g>
	<g>
		<path fill="#010101" d="M84.377,34.34v21.442c0,0.556-0.451,0.985-0.986,0.985s-0.965-0.429-0.965-0.985V34.34
			c0-0.536,0.43-0.985,0.965-0.985S84.377,33.805,84.377,34.34z"/>
	</g>
	<g>
		<path fill="#010101" d="M64.498,34.34v21.442c0,0.556-0.43,0.985-0.963,0.985c-0.557,0-0.986-0.429-0.986-0.985V34.34
			c0-0.536,0.43-0.985,0.986-0.985C64.068,33.355,64.498,33.805,64.498,34.34z"/>
	</g>
	<g>
		<path fill="#010101" d="M44.621,34.34v21.442c0,0.556-0.428,0.985-0.963,0.985s-0.985-0.429-0.985-0.985V34.34
			c0-0.536,0.449-0.985,0.985-0.985S44.621,33.805,44.621,34.34z"/>
	</g>
	<g>
		<path fill="#010101" d="M24.764,34.34v21.442c0,0.556-0.449,0.985-0.985,0.985s-0.985-0.429-0.985-0.985V34.34
			c0-0.536,0.45-0.985,0.985-0.985S24.764,33.805,24.764,34.34z"/>
	</g>
	<path fill="#010101" d="M41.986,84.185c-0.493-4.562-4.37-8.139-9.06-8.139c-4.712,0-8.589,3.577-9.082,8.139
		c-0.022,0.322-0.042,0.643-0.042,0.965c0,0.343,0.021,0.665,0.042,0.985c0.514,4.582,4.391,8.139,9.082,8.139
		c4.669,0,8.547-3.557,9.06-8.139c0.022-0.32,0.043-0.643,0.043-0.985C42.029,84.827,42.008,84.507,41.986,84.185z M32.926,92.303
		c-3.962,0-7.175-3.213-7.175-7.153c0-3.941,3.213-7.155,7.175-7.155c3.941,0,7.155,3.214,7.155,7.155
		C40.081,89.09,36.867,92.303,32.926,92.303z"/>
	<path fill="#0F5B6E" d="M40.081,85.149c0,3.94-3.213,7.153-7.155,7.153c-3.962,0-7.175-3.213-7.175-7.153
		c0-3.941,3.213-7.155,7.175-7.155C36.867,77.994,40.081,81.208,40.081,85.149z"/>
	<path fill="#010101" d="M106.953,84.164c-0.492-4.563-4.369-8.118-9.061-8.118s-8.566,3.577-9.061,8.139
		c-0.021,0.322-0.043,0.643-0.043,0.965c0,0.343,0.021,0.665,0.043,0.985c0.516,4.582,4.393,8.139,9.061,8.139
		c4.713,0,8.59-3.576,9.084-8.184c0.021-0.298,0.041-0.619,0.041-0.94C107.018,84.807,106.998,84.483,106.953,84.164z
		 M97.893,92.303c-3.939,0-7.152-3.213-7.152-7.153c0-3.941,3.213-7.155,7.152-7.155c3.941,0,7.154,3.214,7.154,7.155
		C105.047,89.09,101.834,92.303,97.893,92.303z"/>
	<path fill="#0F5B6E" d="M105.047,85.149c0,3.94-3.213,7.153-7.154,7.153c-3.939,0-7.152-3.213-7.152-7.153
		c0-3.941,3.213-7.155,7.152-7.155C101.834,77.994,105.047,81.208,105.047,85.149z"/>
	<g>
		<path fill="#010101" d="M98.877,65.486c0,0.535-0.447,0.962-0.984,0.962H3.773c-0.536,0-0.964-0.427-0.964-0.962
			c0-0.536,0.429-0.987,0.964-0.987h94.12C98.43,64.499,98.877,64.95,98.877,65.486z"/>
	</g>
</g>
</svg>
