<?xml version="1.0" encoding="utf-8"?>
<!-- Generator: Adobe Illustrator 16.0.0, SVG Export Plug-In . SVG Version: 6.00 Build 0)  -->
<!DOCTYPE svg PUBLIC "-//W3C//DTD SVG 1.1//EN" "http://www.w3.org/Graphics/SVG/1.1/DTD/svg11.dtd">
<svg version="1.1" id="Layer_1" xmlns="http://www.w3.org/2000/svg" xmlns:xlink="http://www.w3.org/1999/xlink" x="0px" y="0px"
	 width="120px" height="120px" viewBox="0 0 120 120" enable-background="new 0 0 120 120" xml:space="preserve">
<g>
	<rect x="50.566" y="52.896" fill="#0F5B6E" width="29.574" height="40.338"/>
	<path fill="#010101" d="M117.762,93.458c-0.301-0.225-30.195-21.94-52.559-71.222c-0.375-0.826-1.699-0.826-2.076,0
		c-12.509,27.543-27.294,46.379-37.55,57.363c-0.301-2.276-2.077-3.929-3.628-5.403l-0.577-0.525
		c-2.602-2.502-2.25-11.033-1.876-14.11c0.051-0.45-0.174-0.875-0.55-1.101c-0.35-0.225-0.826-0.225-1.2,0
		c-9.557,6.129-5.379,15.159-4.004,18.113c0.95,2.076,0.477,4.727-0.474,6.178c-0.552,0.899-1.177,1.3-1.803,1.051
		c-1.324-0.498-1.725-5.18-1.3-9.205c0.049-0.475-0.176-0.926-0.601-1.126c-0.4-0.226-0.926-0.174-1.275,0.124
		c-5.68,4.879-7.955,12.66-5.629,19.363c1.075,3.127,3.051,5.604,5.678,7.256H3.587c-0.625,0-1.126,0.498-1.126,1.124
		c0,0.625,0.5,1.152,1.126,1.152H32.83c0.625,0,1.151-0.527,1.151-1.152c0-0.626-0.525-1.124-1.151-1.124h-5.628
		c2.152-1.275,3.528-2.979,4.378-4.681h25.143c0.599,0,1.124-0.499,1.124-1.124c0-0.127,0.3-11.357,7.532-35.873
		c5.703,23.863,6.652,35.8,6.68,35.922c0.049,0.601,0.525,1.075,1.123,1.075h43.906c0.498,0,0.951-0.322,1.1-0.799
		C118.338,94.257,118.162,93.734,117.762,93.458z M29.83,93.907c0,0.027,0,0.052-0.027,0.076c-0.073,0.176-0.149,0.376-0.249,0.55
		c-1.952,3.752-6.078,5.68-12.259,5.68h-0.024c-0.401,0-0.826-0.024-1.275-0.024c-5.428-0.225-9.481-3.127-11.182-7.981
		c-1.703-4.928-0.528-10.557,2.9-14.758c-0.024,3.151,0.4,7.505,2.927,8.477c1.651,0.652,3.403-0.098,4.554-1.925
		c1.251-1.977,1.977-5.429,0.601-8.38c-1.952-4.229-3.452-9.48,1.226-13.734c-0.2,3.802-0.1,10.656,2.775,13.407l0.577,0.577
		c2.577,2.452,3.926,3.903,2.25,6.779c-0.125,0.124-0.274,0.275-0.398,0.4c-0.2,0.225-0.327,0.501-0.327,0.801
		c-0.823,1.425-1.075,3.076-0.726,4.654c0.276,1.3,0.953,2.351,1.852,2.9c1.026,0.625,2.052,0.95,3.002,0.95
		c1.801,0,3.328-1.1,4.354-3.078c0.125-0.274,0.274-0.572,0.374-0.899C30.854,90.079,30.654,92.031,29.83,93.907z M74.234,93.233
		c-0.4-3.652-2.027-16.737-7.631-39.327c-0.125-0.475-0.574-0.85-1.074-0.85c-0.627-0.076-0.977,0.299-1.127,0.8
		c-7.181,23.34-8.532,35.773-8.781,39.376h-23.14c0.477-1.627,0.574-3.127,0.574-4.229c0-0.049-0.149-6.879-2.451-6.879
		c-0.225,0-1.302,0.075-1.302,1.651c0,1.627-0.374,3.278-0.975,4.453c-0.601,1.225-1.375,1.825-2.301,1.825
		c-0.525,0-1.15-0.2-1.825-0.601c-0.352-0.225-0.652-0.748-0.801-1.427c-0.251-1.148,0-2.424,0.701-3.401
		c0.149-0.2,0.273-0.4,0.398-0.601c0,0,0-0.024,0.027-0.024c0.826-0.825,1.649-1.725,2.526-2.65
		c5.052-5.38,11.206-12.685,17.66-21.965c6.455-9.281,13.209-20.563,19.465-33.947c18.563,39.85,41.902,61.392,49.631,67.795H74.234
		z"/>
	<path fill="#5AC0DD" d="M113.809,93.233H74.234c-0.4-3.652-2.027-16.737-7.631-39.327c-0.125-0.475-0.574-0.85-1.074-0.85
		c-0.627-0.076-0.977,0.299-1.127,0.8c-7.181,23.34-8.532,35.773-8.781,39.376h-23.14c0.477-1.627,0.574-3.127,0.574-4.229
		c0-0.049-0.149-6.879-2.451-6.879c-0.225,0-1.302,0.075-1.302,1.651c0,1.627-0.374,3.278-0.975,4.453
		c-0.601,1.225-1.375,1.825-2.301,1.825c-0.525,0-1.15-0.2-1.825-0.601c-0.352-0.225-0.652-0.748-0.801-1.427
		c-0.251-1.148,0-2.424,0.701-3.401c0.149-0.2,0.273-0.4,0.398-0.601c0,0,0-0.024,0.027-0.024c0.826-0.825,1.649-1.725,2.526-2.65
		c5.052-5.38,11.206-12.685,17.66-21.965c6.455-9.281,13.209-20.563,19.465-33.947C82.74,65.288,106.08,86.83,113.809,93.233z"/>
	<path fill="#FEDD10" d="M29.83,93.907c0,0.027,0,0.052-0.027,0.076c-0.073,0.176-0.149,0.376-0.249,0.55
		c-1.952,3.752-6.078,5.68-12.259,5.68h-0.024c-0.401,0-0.826-0.024-1.275-0.024c-5.428-0.225-9.481-3.127-11.182-7.981
		c-1.703-4.928-0.528-10.557,2.9-14.758c-0.024,3.151,0.4,7.505,2.927,8.477c1.651,0.652,3.403-0.098,4.554-1.925
		c1.251-1.977,1.977-5.429,0.601-8.38c-1.952-4.229-3.452-9.48,1.226-13.734c-0.2,3.802-0.1,10.656,2.775,13.407l0.577,0.577
		c2.577,2.452,3.926,3.903,2.25,6.779c-0.125,0.124-0.274,0.275-0.398,0.4c-0.2,0.225-0.327,0.501-0.327,0.801
		c-0.823,1.425-1.075,3.076-0.726,4.654c0.276,1.3,0.953,2.351,1.852,2.9c1.026,0.625,2.052,0.95,3.002,0.95
		c1.801,0,3.328-1.1,4.354-3.078c0.125-0.274,0.274-0.572,0.374-0.899C30.854,90.079,30.654,92.031,29.83,93.907z"/>
</g>
</svg>
