<?xml version="1.0" encoding="utf-8"?>
<!-- Generator: Adobe Illustrator 16.0.0, SVG Export Plug-In . SVG Version: 6.00 Build 0)  -->
<!DOCTYPE svg PUBLIC "-//W3C//DTD SVG 1.1//EN" "http://www.w3.org/Graphics/SVG/1.1/DTD/svg11.dtd">
<svg version="1.1" id="Layer_1" xmlns="http://www.w3.org/2000/svg" xmlns:xlink="http://www.w3.org/1999/xlink" x="0px" y="0px"
	 width="120px" height="120px" viewBox="0 0 120 120" enable-background="new 0 0 120 120" xml:space="preserve">
<g>
	<path fill="#F2F2F2" d="M113.633,47.71c-0.227,3.005-1.41,5.605-3.098,6.666c-0.023,0.025-0.051,0.051-0.074,0.076
		c-0.049,0.025-0.127,0.076-0.15,0.127c-0.027,0-0.027,0.023-0.027,0.023c-0.074,0.077-0.15,0.203-0.176,0.305
		c-0.074,0.15-0.1,0.303-0.1,0.455v37.546c0,0.53-0.428,0.961-0.957,0.961s-0.957-0.431-0.957-0.961V55.362
		c0-0.152-0.023-0.305-0.102-0.455c-0.025-0.102-0.1-0.228-0.176-0.305c0,0,0-0.023-0.025-0.023
		c-0.025-0.051-0.076-0.076-0.125-0.102c-0.025-0.051-0.051-0.076-0.1-0.102c-1.691-1.061-2.871-3.661-3.125-6.666H113.633z"/>
	<path fill="#010101" d="M59.111,25.44c-22.364,0-40.547,18.23-40.547,40.627c0,22.421,18.183,40.654,40.547,40.654
		c22.338,0,40.52-18.233,40.52-40.654C99.631,43.67,81.449,25.44,59.111,25.44z M59.111,104.423
		c-21.08,0-38.255-17.222-38.255-38.355c0-21.135,17.175-38.33,38.255-38.33c21.079,0,38.231,17.194,38.231,38.33
		C97.342,87.201,80.189,104.423,59.111,104.423z"/>
	<path fill="#FCD797" d="M59.111,27.738c-21.08,0-38.255,17.194-38.255,38.33c0,21.134,17.175,38.355,38.255,38.355
		c21.079,0,38.231-17.222,38.231-38.355C97.342,44.932,80.189,27.738,59.111,27.738z M59.111,95.132
		c-15.992,0-28.986-13.029-28.986-29.064c0-16.009,12.995-29.038,28.986-29.038c15.967,0,28.961,13.029,28.961,29.038
		C88.072,82.103,75.078,95.132,59.111,95.132z"/>
	<g>
		<path fill="#010101" d="M59.111,37.029c-15.992,0-28.986,13.029-28.986,29.038c0,16.035,12.995,29.064,28.986,29.064
			c15.967,0,28.961-13.029,28.961-29.064C88.072,50.059,75.078,37.029,59.111,37.029z M59.111,92.807
			c-14.708,0-26.695-11.994-26.695-26.739c0-14.747,11.988-26.74,26.695-26.74s26.668,11.993,26.668,26.74
			C85.779,80.813,73.818,92.807,59.111,92.807z"/>
		<path fill="#EABA5E" d="M85.779,66.067c0,14.745-11.961,26.739-26.668,26.739S32.416,80.813,32.416,66.067
			c0-14.747,11.988-26.74,26.695-26.74S85.779,51.321,85.779,66.067z"/>
	</g>
	<g>
		<path fill="#010101" d="M10.732,35.969c-3.902,0-6.951,4.646-6.951,10.606c0,3.963,1.437,7.575,3.678,9.368v36.966
			c0,1.792,1.459,3.256,3.273,3.256c1.789,0,3.249-1.464,3.249-3.256V55.942c2.242-1.793,3.677-5.404,3.677-9.368
			C17.658,40.614,14.61,35.969,10.732,35.969z M12.318,54.3c-0.125,0.102-0.226,0.203-0.302,0.329l-0.151,0.228
			c-0.126,0.176-0.201,0.404-0.201,0.631v37.421c0,0.53-0.428,0.961-0.933,0.961c-0.528,0-0.956-0.431-0.956-0.961V55.487
			c0-0.176-0.127-0.529-0.202-0.682c-0.101-0.177-0.226-0.354-0.403-0.455c-1.863-1.236-3.098-4.368-3.098-7.776
			c0-4.496,2.141-8.283,4.659-8.283c2.493,0,4.633,3.788,4.633,8.283C15.365,49.932,14.132,53.063,12.318,54.3z"/>
		<path fill="#F2F2F2" d="M15.365,46.575c0,3.357-1.233,6.489-3.047,7.725c-0.125,0.102-0.226,0.203-0.302,0.329l-0.151,0.228
			c-0.126,0.176-0.201,0.404-0.201,0.631v37.421c0,0.53-0.428,0.961-0.933,0.961c-0.528,0-0.956-0.431-0.956-0.961V55.487
			c0-0.176-0.127-0.529-0.202-0.682c-0.101-0.177-0.226-0.354-0.403-0.455c-1.863-1.236-3.098-4.368-3.098-7.776
			c0-4.496,2.141-8.283,4.659-8.283C13.225,38.292,15.365,42.079,15.365,46.575z"/>
	</g>
	<g>
		<g>
			<path fill="#010101" d="M116.002,46.575c0,3.988-1.436,7.6-3.701,9.368c-0.178,0.151-0.355,0.277-0.529,0.378
				c-0.529,0.354-1.26,0.177-1.586-0.354c-0.129-0.176-0.178-0.403-0.178-0.604c0-0.179,0.025-0.33,0.1-0.455
				c0.025-0.127,0.102-0.228,0.176-0.305c0,0,0-0.023,0.027-0.023c0.051-0.051,0.102-0.102,0.15-0.127
				c0.023-0.025,0.051-0.051,0.074-0.076c1.688-1.061,2.871-3.661,3.098-6.666h-9.191c0.254,3.005,1.434,5.605,3.125,6.666
				c0.049,0.025,0.074,0.051,0.1,0.102c0.049,0.025,0.1,0.051,0.125,0.102c0.025,0,0.025,0.023,0.025,0.023
				c0.076,0.077,0.15,0.178,0.176,0.305c0.078,0.125,0.102,0.276,0.102,0.455c0,0.2-0.049,0.428-0.176,0.604
				c-0.229,0.354-0.58,0.557-0.957,0.557c-0.227,0-0.428-0.076-0.631-0.202c-0.176-0.101-0.35-0.227-0.527-0.378
				c-2.268-1.768-3.705-5.379-3.705-9.368c0-0.657,0.531-1.162,1.16-1.162h11.584C115.473,45.413,116.002,45.917,116.002,46.575z"/>
		</g>
		<g>
			<path fill="#010101" d="M112.301,55.362v37.546c0,1.792-1.461,3.256-3.25,3.256s-3.248-1.464-3.248-3.256V55.362
				c0-0.658,0.504-1.162,1.133-1.162c0.277,0,0.529,0.1,0.73,0.277c0.049,0.025,0.1,0.051,0.125,0.102
				c0.025,0,0.025,0.023,0.025,0.023c0.076,0.077,0.15,0.178,0.176,0.305c0.078,0.125,0.102,0.276,0.102,0.455v37.546
				c0,0.53,0.428,0.961,0.957,0.961s0.957-0.431,0.957-0.961V55.362c0-0.179,0.025-0.33,0.1-0.455
				c0.025-0.127,0.102-0.228,0.176-0.305c0,0,0-0.023,0.027-0.023c0.051-0.051,0.102-0.102,0.15-0.127
				c0.176-0.177,0.426-0.252,0.682-0.252C111.795,54.2,112.301,54.704,112.301,55.362z"/>
		</g>
		<g>
			<path fill="#010101" d="M103.254,47.715c-0.635,0-1.148-0.517-1.148-1.153v-9.436c0-0.636,0.514-1.153,1.148-1.153
				s1.15,0.517,1.15,1.153v9.436C104.404,47.198,103.889,47.715,103.254,47.715z"/>
		</g>
		<g>
			<path fill="#010101" d="M114.842,47.715c-0.635,0-1.15-0.517-1.15-1.153v-9.436c0-0.636,0.516-1.153,1.15-1.153
				s1.15,0.517,1.15,1.153v9.436C115.992,47.198,115.477,47.715,114.842,47.715z"/>
		</g>
		<g>
			<path fill="#010101" d="M109.047,47.715c-0.633,0-1.15-0.517-1.15-1.153v-9.436c0-0.636,0.518-1.153,1.15-1.153
				c0.637,0,1.152,0.517,1.152,1.153v9.436C110.199,47.198,109.684,47.715,109.047,47.715z"/>
		</g>
	</g>
</g>
</svg>
