<?xml version="1.0" encoding="utf-8"?>
<!-- Generator: Adobe Illustrator 16.0.0, SVG Export Plug-In . SVG Version: 6.00 Build 0)  -->
<!DOCTYPE svg PUBLIC "-//W3C//DTD SVG 1.1//EN" "http://www.w3.org/Graphics/SVG/1.1/DTD/svg11.dtd">
<svg version="1.1" id="Layer_1" xmlns="http://www.w3.org/2000/svg" xmlns:xlink="http://www.w3.org/1999/xlink" x="0px" y="0px"
	 width="120px" height="120px" viewBox="0 0 120 120" enable-background="new 0 0 120 120" xml:space="preserve">
<g>
	<path fill="#010101" d="M115.82,40.42c-2.747-3.944-6.736-4.103-10.973-4.305c-1.375-0.046-2.817-0.112-4.282-0.316
		c-0.99-0.112-2.028-0.72-3.244-1.397c-1.602-0.9-3.606-2.027-6.244-2.41c-0.247-0.045-0.494-0.066-0.812-0.066
		c-3.604,0-12.798,2.771-23.188,6.377L55.902,29.22c-0.271-0.203-0.608-0.271-0.946-0.181l-11.674,3.425
		c-0.315,0.09-0.563,0.338-0.675,0.632c-0.113,0.293-0.068,0.653,0.09,0.923l6.828,10.637c-11.674,4.395-21.859,8.475-24.36,9.487
		l-13.318-9.171c-0.293-0.203-0.653-0.248-0.991-0.09l-8.226,3.561c-0.292,0.135-0.518,0.383-0.585,0.697
		c-0.09,0.316,0,0.654,0.203,0.902l9.036,10.928L7.136,63c-0.473,0.225-0.698,0.766-0.518,1.262l1.961,5.611
		c0.112,0.338,0.382,0.584,0.72,0.676c0.383,0.09,9.127,2.096,18.817,2.096c4.44,0,8.405-0.428,11.74-1.285l19.538-5.049
		l-1.645,25.873c-0.022,0.336,0.113,0.65,0.361,0.855c0.181,0.156,0.428,0.248,0.654,0.248c0.09,0,0.157,0,0.226-0.023l11.898-2.658
		c0.314-0.068,0.585-0.316,0.72-0.633l12.057-29.947l23.82-6.153c6.153-1.6,8.27-5.07,8.969-7.008
		C117.286,44.566,117.062,42.156,115.82,40.42z M45.174,34.064l9.848-2.906l9.758,7.932c-4.372,1.555-8.901,3.2-13.295,4.846
		L45.174,34.064z M114.513,46.166c-0.563,1.555-2.298,4.35-7.549,5.701l-24.312,6.287c-0.317,0.09-0.589,0.314-0.7,0.632
		L69.896,88.711l-10.005,2.23l1.645-25.914c0.022-0.336-0.113-0.652-0.383-0.879c-0.18-0.133-0.406-0.227-0.653-0.227
		c-0.091,0-0.159,0-0.249,0.025l-20.912,5.406c-3.178,0.836-6.941,1.24-11.222,1.24c-8.089,0-15.729-1.486-17.78-1.938l-1.487-4.215
		l4.507-2.186c0.27-0.135,0.474-0.406,0.541-0.721c0.068-0.293,0-0.633-0.203-0.857L4.702,49.794l6.446-2.817l13.317,9.173
		c0.271,0.201,0.632,0.225,0.946,0.111c0.563-0.225,55.19-22.264,64.854-22.264c0.203,0,0.36,0,0.521,0.021
		c2.253,0.34,3.986,1.308,5.518,2.188c0.34,0.18,0.636,0.36,0.949,0.518c0.068,0.09,0.135,0.226,0.068,0.473
		c-0.137,0.474-1.082,2.164-7.777,4.079c-0.538,0.157-0.854,0.743-0.695,1.284c0.133,0.451,0.539,0.744,0.99,0.744
		c0.091,0,0.181-0.022,0.269-0.045c5.704-1.646,8.724-3.471,9.219-5.611c0,0,0,0,0-0.023c0.315,0.113,0.632,0.182,0.969,0.227
		c1.556,0.203,3.043,0.271,4.484,0.338c4.012,0.157,7.189,0.316,9.376,3.402C114.988,42.763,115.122,44.521,114.513,46.166z"/>
	<path fill="#EDE4CC" d="M114.155,41.591c-2.187-3.086-5.364-3.245-9.376-3.402c-1.441-0.067-2.929-0.135-4.484-0.338
		c-0.337-0.045-0.653-0.113-0.969-0.227c0,0.023,0,0.023,0,0.023c-0.495,2.141-3.515,3.966-9.219,5.611
		c-0.088,0.022-0.178,0.045-0.269,0.045c-0.451,0-0.857-0.293-0.99-0.744c-0.158-0.541,0.157-1.127,0.695-1.284
		c6.695-1.915,7.641-3.605,7.777-4.079c0.066-0.247,0-0.383-0.068-0.473c-0.313-0.157-0.609-0.338-0.949-0.518
		c-1.531-0.88-3.265-1.848-5.518-2.188c-0.16-0.021-0.317-0.021-0.521-0.021c-9.664,0-64.291,22.039-64.854,22.264
		c-0.314,0.113-0.676,0.09-0.946-0.111l-13.317-9.173l-6.446,2.817l8.992,10.883c0.203,0.225,0.271,0.564,0.203,0.857
		c-0.067,0.314-0.271,0.586-0.541,0.721l-4.507,2.186l1.487,4.215c2.051,0.451,9.691,1.938,17.78,1.938
		c4.281,0,8.044-0.404,11.222-1.24l20.912-5.406c0.09-0.025,0.158-0.025,0.249-0.025c0.247,0,0.474,0.094,0.653,0.227
		c0.27,0.227,0.405,0.543,0.383,0.879L59.89,90.941l10.005-2.23l12.057-29.925c0.111-0.317,0.383-0.542,0.7-0.632l24.312-6.287
		c5.251-1.352,6.985-4.146,7.549-5.701C115.122,44.521,114.988,42.763,114.155,41.591z M54.008,55.676
		c-1.127,0.36-2.32-0.271-2.658-1.397c-0.361-1.127,0.271-2.344,1.397-2.682c1.127-0.361,2.344,0.293,2.682,1.42
		C55.767,54.143,55.134,55.337,54.008,55.676z M60.769,53.602c-1.126,0.339-2.343-0.292-2.682-1.419
		c-0.36-1.127,0.294-2.321,1.421-2.659c1.127-0.36,2.32,0.271,2.658,1.396C62.527,52.047,61.896,53.242,60.769,53.602z
		 M67.506,51.507c-1.125,0.359-2.319-0.271-2.681-1.398c-0.338-1.126,0.293-2.32,1.419-2.681c1.127-0.338,2.322,0.292,2.66,1.419
		C69.265,49.974,68.634,51.169,67.506,51.507z M74.245,49.434c-1.126,0.338-2.321-0.294-2.682-1.421
		c-0.339-1.126,0.293-2.32,1.419-2.658c1.127-0.361,2.321,0.271,2.659,1.397C76.003,47.879,75.372,49.073,74.245,49.434z
		 M80.983,47.337c-1.126,0.361-2.321-0.27-2.683-1.396c-0.337-1.127,0.294-2.321,1.42-2.682c1.127-0.338,2.321,0.293,2.681,1.42
		C82.739,45.806,82.11,47,80.983,47.337z"/>
	<path fill="#EDE4CC" d="M64.78,39.089c-4.372,1.555-8.901,3.2-13.295,4.846l-6.311-9.871l9.848-2.906L64.78,39.089z"/>
	<path fill="#010101" d="M80.983,47.337c-1.126,0.361-2.321-0.27-2.683-1.396c-0.337-1.127,0.294-2.321,1.42-2.682
		c1.127-0.338,2.321,0.293,2.681,1.42C82.739,45.806,82.11,47,80.983,47.337z"/>
	<path fill="#010101" d="M74.245,49.434c-1.126,0.338-2.321-0.294-2.682-1.421c-0.339-1.126,0.293-2.32,1.419-2.658
		c1.127-0.361,2.321,0.271,2.659,1.397C76.003,47.879,75.372,49.073,74.245,49.434z"/>
	<path fill="#010101" d="M67.506,51.507c-1.125,0.359-2.319-0.271-2.681-1.398c-0.338-1.126,0.293-2.32,1.419-2.681
		c1.127-0.338,2.322,0.292,2.66,1.419C69.265,49.974,68.634,51.169,67.506,51.507z"/>
	<path fill="#010101" d="M60.769,53.602c-1.126,0.339-2.343-0.292-2.682-1.419c-0.36-1.127,0.294-2.321,1.421-2.659
		c1.127-0.36,2.32,0.271,2.658,1.396C62.527,52.047,61.896,53.242,60.769,53.602z"/>
	<path fill="#010101" d="M54.008,55.676c-1.127,0.36-2.32-0.271-2.658-1.397c-0.361-1.127,0.271-2.344,1.397-2.682
		c1.127-0.361,2.344,0.293,2.682,1.42C55.767,54.143,55.134,55.337,54.008,55.676z"/>
</g>
</svg>
