<?xml version="1.0" encoding="utf-8"?>
<!-- Generator: Adobe Illustrator 16.0.0, SVG Export Plug-In . SVG Version: 6.00 Build 0)  -->
<!DOCTYPE svg PUBLIC "-//W3C//DTD SVG 1.1//EN" "http://www.w3.org/Graphics/SVG/1.1/DTD/svg11.dtd">
<svg version="1.1" id="Layer_1" xmlns="http://www.w3.org/2000/svg" xmlns:xlink="http://www.w3.org/1999/xlink" x="0px" y="0px"
	 width="120px" height="120px" viewBox="0 0 120 120" enable-background="new 0 0 120 120" xml:space="preserve">
<g>
	<rect x="40.449" y="57.256" fill="#72CDDA" width="43.375" height="43.484"/>
	<path fill="#E90E8B" d="M84.024,55.98H40.347c-0.649,0-1.163,0.515-1.163,1.138v43.677c0,0.647,0.514,1.162,1.163,1.162h43.677
		c0.623,0,1.136-0.515,1.136-1.162V57.119C85.16,56.495,84.647,55.98,84.024,55.98z M82.862,77.807H63.336V58.281h19.526V77.807z
		 M41.483,58.281H61.01v19.525H41.483V58.281z M41.483,80.107H61.01V99.66H41.483V80.107z M82.862,99.66H63.336V80.107h19.526V99.66
		z"/>
	<path fill="#010101" d="M116.263,54.98L62.985,1.7c-0.434-0.459-1.162-0.459-1.622,0L7.893,55.143
		c-0.325,0.324-0.405,0.837-0.243,1.271c0.189,0.433,0.594,0.705,1.054,0.705h14.523v58.552c0,0.621,0.514,1.136,1.136,1.136h75.62
		c0.623,0,1.136-0.515,1.136-1.136V57.119h14.523c0,0,0.029,0,0.056,0c0.621,0,1.136-0.515,1.136-1.165
		C116.833,55.548,116.616,55.169,116.263,54.98z M99.982,54.818c-0.649,0-1.162,0.514-1.162,1.136v58.552H25.526V55.954
		c0-0.622-0.514-1.136-1.164-1.136H11.49L62.172,4.134l50.684,50.685H99.982z"/>
	<path fill="#D64D71" d="M62.172,4.134L11.49,54.818h12.873c0.65,0,1.164,0.514,1.164,1.136v58.552H98.82V55.954
		c0-0.622,0.513-1.136,1.162-1.136h12.873L62.172,4.134z M85.16,100.796c0,0.647-0.513,1.162-1.136,1.162H40.347
		c-0.649,0-1.163-0.515-1.163-1.162V57.119c0-0.624,0.514-1.138,1.163-1.138h43.677c0.623,0,1.136,0.515,1.136,1.138V100.796z"/>
	<path fill="#010101" d="M84.024,55.98H40.347c-0.649,0-1.163,0.515-1.163,1.138v43.677c0,0.647,0.514,1.162,1.163,1.162h43.677
		c0.623,0,1.136-0.515,1.136-1.162V57.119C85.16,56.495,84.647,55.98,84.024,55.98z M61.01,99.66H41.483V80.107H61.01V99.66z
		 M61.01,77.807H41.483V58.281H61.01V77.807z M82.862,99.66H63.336V80.107h19.526V99.66z M82.862,77.807H63.336V58.281h19.526
		V77.807z"/>
</g>
</svg>
