<?xml version="1.0" encoding="utf-8"?>
<!-- Generator: Adobe Illustrator 16.0.0, SVG Export Plug-In . SVG Version: 6.00 Build 0)  -->
<!DOCTYPE svg PUBLIC "-//W3C//DTD SVG 1.1//EN" "http://www.w3.org/Graphics/SVG/1.1/DTD/svg11.dtd">
<svg version="1.1" id="Layer_1" xmlns="http://www.w3.org/2000/svg" xmlns:xlink="http://www.w3.org/1999/xlink" x="0px" y="0px"
	 width="120px" height="120px" viewBox="0 0 120 120" enable-background="new 0 0 120 120" xml:space="preserve">
<g>
	<path fill="#010101" d="M117.868,50.52l-3.994-8.174l4.1-18.998c0.08-0.317-0.025-0.661-0.236-0.926
		c-0.213-0.265-0.529-0.422-0.875-0.422h-5.053c-0.42,0-0.793,0.238-1.004,0.581l-8.307,15.796l-47.941,0.528l-2.248,0.026
		l-12.965,0.159h-0.106c-0.449,0.026-0.819,0.316-0.979,0.74c-0.158,0.45-0.026,0.927,0.344,1.244
		c0.105,0.079,0.211,0.185,0.318,0.29c0.186,0.16,0.372,0.318,0.555,0.53c0.212,0.157,0.398,0.369,0.582,0.581
		c0.372,0.371,0.715,0.768,1.033,1.191c0.318,0.449,0.636,0.926,0.925,1.402c0.292,0.449,0.529,0.898,0.741,1.375
		c0.052,0.053,0.052,0.105,0.106,0.159c0.158,0.37,0.318,0.767,0.45,1.138c0.132,0.316,0.237,0.635,0.318,0.952
		c0.238,0.688,0.396,1.376,0.475,2.091c0.161,0.846,0.238,1.719,0.238,2.592c0,8.864-7.195,16.088-16.057,16.088H5.137
		c-0.186,0-0.397,0-0.583-0.028c-0.556-0.026-1.111-0.08-1.667-0.157c-0.29-0.055-0.607,0.052-0.874,0.236
		c-0.238,0.213-0.37,0.502-0.396,0.822c0,0.025,0,0.025,0,0.052c-0.186,3.731,0.874,6.8,3.122,9.153
		c3.043,3.177,8.097,4.788,15.026,4.788h23.706c12.383,0,22.489-17.673,22.993-29.79l36.721-7.857l6.43,5.212
		c0.186,0.159,0.451,0.238,0.715,0.238h6.533c0.398,0,0.77-0.185,0.955-0.528C118.028,51.287,118.054,50.863,117.868,50.52z
		 M110.728,49.886l-6.563-5.292c-0.264-0.211-0.609-0.317-0.926-0.238l-38.123,8.148c-0.529,0.132-0.9,0.582-0.9,1.111
		c0,10.716-9.684,28.468-20.745,28.468H19.766c-6.296,0-10.794-1.374-13.386-4.103c-1.586-1.639-2.408-3.756-2.514-6.319
		c0.45,0.025,0.874,0.052,1.271,0.052h23.15c10.104,0,18.308-8.229,18.308-18.336c0-0.555-0.026-1.11-0.08-1.666
		c-0.052-0.502-0.106-1.032-0.186-1.535c-0.052-0.264-0.106-0.529-0.184-0.794c-0.054-0.316-0.16-0.634-0.238-0.952
		c-0.266-0.979-0.609-1.904-1.059-2.805c-0.238-0.528-0.504-1.059-0.821-1.561c-0.078-0.158-0.184-0.317-0.315-0.477
		c-0.24-0.422-0.53-0.846-0.848-1.242c-0.054-0.106-0.106-0.188-0.212-0.266c-0.211-0.265-0.398-0.529-0.609-0.768l10.849-0.131
		h1.11l49.183-0.557c0.398,0,0.795-0.238,0.98-0.609l8.336-15.768h2.988l-3.891,17.991c-0.053,0.265-0.025,0.503,0.08,0.74
		l3.387,6.906H110.728z"/>
	<path fill="#FEDB45" d="M111.679,42.979l3.387,6.906h-4.338l-6.563-5.292c-0.264-0.211-0.609-0.317-0.926-0.238l-38.123,8.148
		c-0.529,0.132-0.9,0.582-0.9,1.111c0,10.716-9.684,28.468-20.745,28.468H19.766c-6.296,0-10.794-1.374-13.386-4.103
		c-1.586-1.639-2.408-3.756-2.514-6.319c0.45,0.025,0.874,0.052,1.271,0.052h23.15c10.104,0,18.308-8.229,18.308-18.336
		c0-0.555-0.026-1.11-0.08-1.666c-0.052-0.502-0.106-1.032-0.186-1.535c-0.052-0.264-0.106-0.529-0.184-0.794
		c-0.054-0.316-0.16-0.634-0.238-0.952c-0.266-0.979-0.609-1.904-1.059-2.805c-0.238-0.528-0.504-1.059-0.821-1.561
		c-0.078-0.158-0.184-0.317-0.315-0.477c-0.24-0.422-0.53-0.846-0.848-1.242c-0.054-0.106-0.106-0.188-0.212-0.266
		c-0.211-0.265-0.398-0.529-0.609-0.768l10.849-0.131c0.157,0.105,0.343,0.157,0.555,0.157c0.213,0,0.398-0.052,0.556-0.157
		l49.183-0.557c0.398,0,0.795-0.238,0.98-0.609l8.336-15.768h2.988l-3.891,17.991C111.546,42.504,111.573,42.742,111.679,42.979z"/>
	<path fill="#010101" d="M46.515,51.711c-0.052-0.502-0.106-1.032-0.186-1.535c-0.052-0.264-0.106-0.529-0.184-0.794
		c-0.054-0.316-0.16-0.634-0.238-0.952c-0.266-0.979-0.609-1.904-1.059-2.805c-0.238-0.528-0.504-1.059-0.821-1.561
		c-0.078-0.158-0.184-0.317-0.315-0.477c-0.24-0.422-0.53-0.846-0.848-1.242c-0.054-0.106-0.106-0.188-0.212-0.266
		c-0.211-0.265-0.398-0.529-0.609-0.768c-0.607-0.714-1.294-1.348-2.01-1.958c-0.184-0.185-0.449-0.264-0.688-0.264h-0.106
		l-8.068,0.634c-13.573,0-28.945,17.964-29.553,30.613c0,0.025,0,0.025,0,0.052c0,0.556,0.424,1.031,0.979,1.11
		c0.449,0.052,0.873,0.106,1.269,0.161c0.45,0.025,0.874,0.052,1.271,0.052h23.15c10.104,0,18.308-8.229,18.308-18.336
		C46.595,52.822,46.569,52.267,46.515,51.711z M28.287,69.465H5.137c-0.186,0-0.397,0-0.583-0.028c-0.052,0-0.132,0-0.184-0.026
		c-0.16-0.027-0.292-0.027-0.423-0.054c1.348-11.431,15.318-27.382,27.33-27.382l7.646-0.609c0.186,0.16,0.372,0.318,0.555,0.53
		c0.212,0.157,0.398,0.369,0.582,0.581c0.372,0.371,0.715,0.768,1.033,1.191c0.318,0.449,0.636,0.926,0.925,1.402
		c0.292,0.449,0.529,0.898,0.741,1.375c0.052,0.053,0.052,0.105,0.106,0.159c0.158,0.37,0.318,0.767,0.45,1.138
		c0.132,0.316,0.237,0.635,0.318,0.952c0.238,0.688,0.396,1.376,0.475,2.091c0.161,0.846,0.238,1.719,0.238,2.592
		C44.344,62.241,37.149,69.465,28.287,69.465z"/>
	<path fill="#B3E0E1" d="M44.344,53.377c0,8.864-7.195,16.088-16.057,16.088H5.137c-0.397,0-0.795-0.028-1.19-0.082
		c1.322-11.428,15.318-27.408,27.33-27.408l7.646-0.609c0.186,0.16,0.372,0.318,0.555,0.53c0.212,0.157,0.398,0.369,0.582,0.581
		c0.372,0.371,0.715,0.768,1.033,1.191c0.318,0.449,0.636,0.926,0.925,1.402c0.292,0.449,0.529,0.898,0.741,1.375
		c0.052,0.053,0.052,0.105,0.106,0.159c0.158,0.37,0.318,0.767,0.45,1.138c0.132,0.316,0.237,0.635,0.318,0.952
		c0.238,0.688,0.396,1.376,0.475,2.091C44.267,51.631,44.344,52.504,44.344,53.377z"/>
	<g>
		<path fill="#010101" d="M54.558,31.55v8.652c0,0.423-0.212,0.793-0.556,0.979c-0.157,0.105-0.343,0.157-0.556,0.157
			c-0.212,0-0.397-0.052-0.555-0.157c-0.344-0.187-0.582-0.557-0.582-0.979V31.55c0-0.635,0.502-1.138,1.137-1.138
			C54.054,30.412,54.558,30.915,54.558,31.55z"/>
	</g>
	<g>
		<path fill="#010101" d="M89.565,32.668H18.381c-0.623,0-1.126-0.504-1.126-1.125c0-0.622,0.504-1.125,1.126-1.125h71.185
			c0.621,0,1.125,0.504,1.125,1.125C90.69,32.164,90.187,32.668,89.565,32.668z"/>
	</g>
	<g>
		<path fill="#010101" d="M46.747,95.632h-32.02c-4.806,0-8.717-3.906-8.717-8.714c0-0.623,0.504-1.124,1.126-1.124
			s1.126,0.501,1.126,1.124c0,3.563,2.899,6.466,6.464,6.466h32.02c3.565,0,6.465-2.903,6.465-6.466
			c0-0.623,0.503-1.124,1.126-1.124s1.126,0.501,1.126,1.124C55.464,91.726,51.553,95.632,46.747,95.632z"/>
	</g>
	<g>
		<path fill="#010101" d="M18.381,95.635c-0.126,0-0.253-0.022-0.38-0.064c-0.583-0.213-0.889-0.854-0.679-1.442l4.041-11.295
			c0.207-0.587,0.855-0.884,1.439-0.683c0.583,0.213,0.889,0.853,0.679,1.442L19.44,94.888
			C19.277,95.349,18.844,95.635,18.381,95.635z"/>
	</g>
	<g>
		<path fill="#010101" d="M43.559,95.635c-0.497,0-0.948-0.328-1.085-0.829L39.365,83.51c-0.165-0.6,0.187-1.22,0.786-1.385
			c0.607-0.176,1.222,0.188,1.385,0.788l3.108,11.299c0.166,0.599-0.186,1.219-0.786,1.382
			C43.758,95.621,43.657,95.635,43.559,95.635z"/>
	</g>
</g>
</svg>
