<?xml version="1.0" encoding="utf-8"?>
<!-- Generator: Adobe Illustrator 16.0.0, SVG Export Plug-In . SVG Version: 6.00 Build 0)  -->
<!DOCTYPE svg PUBLIC "-//W3C//DTD SVG 1.1//EN" "http://www.w3.org/Graphics/SVG/1.1/DTD/svg11.dtd">
<svg version="1.1" id="Layer_1" xmlns="http://www.w3.org/2000/svg" xmlns:xlink="http://www.w3.org/1999/xlink" x="0px" y="0px"
	 width="500px" height="500px" viewBox="0 0 500 500" enable-background="new 0 0 500 500" xml:space="preserve">
<g>
	<path fill="#010101" d="M272.779,267.633h-4.489c-0.25-2.32-2.41-4.311-5.64-5.48l0.77-2.77l1.74-6.221c0.16-0.57-0.28-1.17-1-1.37
		c-0.721-0.2-1.41,0.091-1.57,0.649l-1.859,6.681l-0.65,2.33c-1.33-0.271-2.76-0.42-4.27-0.42c-2.32,0-4.461,0.34-6.301,0.94
		l0.11-2.08l1.16-21.871h-3.91l1.95-9.14l6.54,1c0.281,0.04,0.531-0.15,0.57-0.42c0.051-0.28-0.14-0.53-0.41-0.57l-7.02-1.07
		c-0.27-0.04-0.51,0.13-0.56,0.39l-2.09,9.81h-6.58c-0.24-3.23-2.93-5.78-6.21-5.78c-3.44,0-6.24,2.8-6.24,6.23
		c0,3.4,2.73,6.16,6.11,6.23l1.36,25.47h11.21c2.86,0.52,6.24,0.83,9.63,0.83c7.11,0,12.8-0.92,15.3-2.449h2.35
		c0.25,0,0.451-0.211,0.451-0.461S273.029,267.633,272.779,267.633z M261.66,259.191l1.811-6.489c0.029-0.04,0.199-0.101,0.439-0.03
		c0.25,0.07,0.359,0.211,0.369,0.24l-1.77,6.359l-0.72,2.591c-0.271-0.08-0.54-0.15-0.819-0.22L261.66,259.191z M255.811,261.941
		c6.109,0,11.119,2.521,11.56,5.691h-23.12C244.69,264.462,249.7,261.941,255.811,261.941z M232.84,242.982l0.04,0.71
		c-2.8-0.1-5.06-2.39-5.06-5.22c0-2.88,2.35-5.23,5.24-5.23c2.73,0,4.95,2.11,5.18,4.78h-5.66L232.84,242.982z M235.16,269.262
		l-1.41-26.359l-0.21-3.97h12.54c0.03,0.01,0.05,0.03,0.07,0.03c0.04,0.01,0.07,0.01,0.11,0.01c0.07,0,0.13-0.02,0.19-0.04h3.37
		l-1.13,21.19l-0.12,2.181c-3,1.189-5,3.1-5.24,5.33h-5.23c-0.25,0-0.45,0.209-0.45,0.459s0.2,0.461,0.45,0.461h1.79
		c0.53,0.25,1.14,0.489,1.83,0.709H235.16z M255.13,270.082c-5.21,0-9.69-0.699-12.59-1.529h25.67
		C265.359,269.512,260.63,270.082,255.13,270.082z"/>
	<path fill="#F2F2F2" d="M268.21,268.553c-2.851,0.959-7.58,1.529-13.08,1.529c-5.21,0-9.69-0.699-12.59-1.529H268.21z"/>
	<path fill="#F2F2F2" d="M264.279,252.912l-1.77,6.359l-0.72,2.591c-0.271-0.08-0.54-0.15-0.819-0.22l0.689-2.451l1.811-6.489
		c0.029-0.04,0.199-0.101,0.439-0.03C264.16,252.742,264.27,252.883,264.279,252.912z"/>
	<path fill="#D7E265" d="M267.37,267.633h-23.12c0.44-3.171,5.45-5.691,11.561-5.691C261.92,261.941,266.93,264.462,267.37,267.633z
		"/>
	<path fill="#E28726" d="M249.23,250.052l-0.54,10.07l-0.12,2.181c-3,1.189-5,3.1-5.24,5.33h-5.23c-0.25,0-0.45,0.209-0.45,0.459
		s0.2,0.461,0.45,0.461h1.79c0.53,0.25,1.14,0.489,1.83,0.709h-6.56l-1.05-19.66c2.05-0.77,4.87-1.32,7.57-0.19
		C244.43,250.552,247.2,250.402,249.23,250.052z"/>
	<path fill="#EDD974" d="M232.84,242.982l0.04,0.71c-2.8-0.1-5.06-2.39-5.06-5.22c0-2.88,2.35-5.23,5.24-5.23
		c2.73,0,4.95,2.11,5.18,4.78h-5.66L232.84,242.982z"/>
	<path fill="#F2F2F2" d="M249.82,238.932l-0.59,11.12c-2.03,0.35-4.8,0.5-7.55-0.64c-2.7-1.13-5.52-0.58-7.57,0.19l-0.36-6.7
		l-0.21-3.97h12.54c0.03,0.01,0.05,0.03,0.07,0.03c0.04,0.01,0.07,0.01,0.11,0.01c0.07,0,0.13-0.02,0.19-0.04H249.82z"/>
</g>
</svg>
