<?xml version="1.0" encoding="utf-8"?>
<!-- Generator: Adobe Illustrator 16.0.0, SVG Export Plug-In . SVG Version: 6.00 Build 0)  -->
<!DOCTYPE svg PUBLIC "-//W3C//DTD SVG 1.1//EN" "http://www.w3.org/Graphics/SVG/1.1/DTD/svg11.dtd">
<svg version="1.1" id="Layer_1" xmlns="http://www.w3.org/2000/svg" xmlns:xlink="http://www.w3.org/1999/xlink" x="0px" y="0px"
	 width="120px" height="120px" viewBox="0 0 120 120" enable-background="new 0 0 120 120" xml:space="preserve">
<g>
	<path fill="#010101" d="M19.291,62.615c-6.738,0-12.226,5.488-12.226,12.225c0,6.74,5.488,12.225,12.226,12.225
		c6.738,0,12.226-5.484,12.226-12.225C31.516,68.104,26.028,62.615,19.291,62.615z M19.291,84.805c-5.488,0-9.94-4.477-9.94-9.965
		c0-5.486,4.452-9.961,9.94-9.961c5.485,0,9.963,4.475,9.963,9.961C29.254,80.328,24.776,84.805,19.291,84.805z"/>
	<path fill="#414142" d="M29.254,74.84c0,5.488-4.478,9.965-9.963,9.965c-5.488,0-9.94-4.477-9.94-9.965
		c0-5.486,4.452-9.961,9.94-9.961C24.776,64.879,29.254,69.354,29.254,74.84z"/>
	<path fill="#010101" d="M88.627,62.615c-6.765,0-12.228,5.488-12.228,12.225c0,6.74,5.463,12.225,12.228,12.225
		c6.737,0,12.2-5.484,12.2-12.225C100.827,68.104,95.364,62.615,88.627,62.615z M88.627,84.805c-5.512,0-9.964-4.477-9.964-9.965
		c0-5.486,4.452-9.961,9.964-9.961c5.486,0,9.938,4.475,9.938,9.961C98.565,80.328,94.113,84.805,88.627,84.805z"/>
	<path fill="#414142" d="M98.565,74.84c0,5.488-4.452,9.965-9.938,9.965c-5.512,0-9.964-4.477-9.964-9.965
		c0-5.486,4.452-9.961,9.964-9.961C94.113,64.879,98.565,69.354,98.565,74.84z"/>
	<path fill="#010101" d="M107.999,52.819h-3.248c-0.625-3.562-3.729-6.306-7.484-6.306H83.041c-3.753,0-6.857,2.744-7.482,6.306
		h-3.032c-0.457,0-0.843,0.265-1.035,0.649l-5.609,12.252H51.442l-3.993-11.072l3.008-1.588l1.708,3.706
		c0.216,0.409,0.602,0.649,1.034,0.649c0.169,0,0.336-0.024,0.481-0.096c0.576-0.265,0.818-0.939,0.552-1.516l-2.164-4.621
		c-0.026-0.096-0.026-0.169-0.073-0.24c-0.023-0.049-0.073-0.073-0.096-0.121l-2.36-5.029c-0.096-0.217-0.263-0.361-0.432-0.482
		l5.608-10.661c0.29-0.554,0.072-1.228-0.482-1.517c-0.552-0.288-1.25-0.096-1.539,0.458l-8.496,16.173H7.473
		c-0.313,0-0.602,0.121-0.818,0.313c-0.192,0.217-0.313,0.506-0.313,0.818v5.607l-1.107,0.049c-0.602,0.023-1.083,0.528-1.083,1.131
		v3.73c0,0.625,0.505,1.131,1.13,1.131H28.29l5.103,12.73c0.193,0.41,0.602,0.699,1.06,0.699h39.277c0.625,0,1.13-0.506,1.13-1.133
		c0-7.484,6.091-13.572,13.573-13.572c7.486,0,13.575,6.088,13.575,13.572c0,0.627,0.505,1.133,1.13,1.133h4.861
		c0.628,0,1.132-0.506,1.132-1.133V53.951C109.131,53.324,108.627,52.819,107.999,52.819z M83.041,48.777h14.226
		c2.503,0,4.572,1.732,5.151,4.042H77.869C78.471,50.51,80.54,48.777,83.041,48.777z M47.905,47.597l1.589,3.394l-2.815,1.517
		l-0.555-1.541L47.905,47.597z M35.223,73.711l-5.128-12.732c-0.167-0.434-0.577-0.698-1.034-0.698H6.413v-1.516l1.083-0.049h23.488
		l5.921,14.995H35.223z M106.869,73.711h-2.648c-0.576-8.207-7.436-14.705-15.788-14.705c-8.351,0-15.208,6.498-15.786,14.705
		H39.338l-6.521-16.535c0,0-0.026,0-0.026-0.023c-0.023-0.097-0.097-0.192-0.167-0.266c-0.025-0.049-0.049-0.072-0.072-0.097
		c-0.049-0.048-0.097-0.071-0.169-0.12c-0.047-0.048-0.12-0.096-0.192-0.119c-0.024-0.025-0.047,0-0.071-0.025
		c-0.097-0.048-0.242-0.071-0.362-0.071H8.604v-4.429h35.475l5.488,15.211c0.167,0.457,0.602,0.744,1.081,0.744h15.959
		c0.456,0,0.842-0.24,1.033-0.648l5.608-12.25h2.765c0.171,0.096,0.34,0.169,0.556,0.169c0.217,0,0.386-0.073,0.553-0.169h26.065
		c0.169,0.096,0.338,0.169,0.553,0.169c0.218,0,0.387-0.073,0.554-0.169h2.576V73.711z"/>
	<path fill="#414142" d="M102.418,52.819H77.869c0.602-2.31,2.671-4.042,5.172-4.042h14.226
		C99.77,48.777,101.839,50.51,102.418,52.819z"/>
	<path fill="#A0C16C" d="M36.906,73.711h-1.683l-5.128-12.732c-0.167-0.434-0.577-0.698-1.034-0.698H6.413v-1.516l1.083-0.049
		h23.488L36.906,73.711z"/>
	<path fill="#86A064" d="M106.869,55.082v18.629h-2.648c-0.576-8.207-7.436-14.705-15.788-14.705
		c-8.351,0-15.208,6.498-15.786,14.705H39.338l-6.521-16.535c0,0-0.026,0-0.026-0.023c-0.023-0.097-0.097-0.192-0.167-0.266
		c-0.025-0.049-0.049-0.072-0.072-0.097c-0.049-0.048-0.097-0.071-0.169-0.12c-0.047-0.048-0.12-0.096-0.192-0.119
		c-0.024-0.025-0.047,0-0.071-0.025c-0.097-0.048-0.242-0.071-0.362-0.071H8.604v-4.429h35.475l5.488,15.211
		c0.167,0.457,0.602,0.744,1.081,0.744h15.959c0.456,0,0.842-0.24,1.033-0.648l5.608-12.25h2.765
		c0.171,0.096,0.34,0.169,0.556,0.169c0.217,0,0.386-0.073,0.553-0.169h26.065c0.169,0.096,0.338,0.169,0.553,0.169
		c0.218,0,0.387-0.073,0.554-0.169H106.869z"/>
	<path fill="#010101" d="M112.549,41.412c-1.829,0-3.32,1.491-3.32,3.345v17.858c0,1.83,1.491,3.322,3.32,3.322
		c1.852,0,3.345-1.492,3.345-3.322V44.757C115.894,42.903,114.4,41.412,112.549,41.412z M113.632,62.615
		c0,0.576-0.481,1.059-1.083,1.059c-0.577,0-1.061-0.482-1.061-1.059V44.757c0-0.603,0.483-1.081,1.061-1.081
		c0.602,0,1.083,0.479,1.083,1.081V62.615z"/>
	<path fill="#414142" d="M113.632,44.757v17.858c0,0.576-0.481,1.059-1.083,1.059c-0.577,0-1.061-0.482-1.061-1.059V44.757
		c0-0.603,0.483-1.081,1.061-1.081C113.15,43.676,113.632,44.154,113.632,44.757z"/>
	<path fill="#010101" d="M53.205,62.617c-0.627,0-1.135,0.506-1.135,1.133c0,0.625,0.508,1.133,1.135,1.133h11.229
		c0.198,0,0.374-0.063,0.536-0.154c0.042-0.021,0.078-0.047,0.118-0.076c0.14-0.102,0.257-0.227,0.336-0.381
		c0.01-0.018,0.028-0.023,0.036-0.039l8.221-17.49c0.269-0.566,0.023-1.242-0.542-1.508c-0.568-0.271-1.244-0.023-1.511,0.545
		l-7.913,16.838H53.205z"/>
</g>
</svg>
