<?xml version="1.0" encoding="utf-8"?>
<!-- Generator: Adobe Illustrator 16.0.0, SVG Export Plug-In . SVG Version: 6.00 Build 0)  -->
<!DOCTYPE svg PUBLIC "-//W3C//DTD SVG 1.1//EN" "http://www.w3.org/Graphics/SVG/1.1/DTD/svg11.dtd">
<svg version="1.1" id="Layer_1" xmlns="http://www.w3.org/2000/svg" xmlns:xlink="http://www.w3.org/1999/xlink" x="0px" y="0px"
	 width="120px" height="120px" viewBox="0 0 120 120" enable-background="new 0 0 120 120" xml:space="preserve">
<g>
	<path fill="#010101" d="M76.406,10"/>
</g>
<g>
	<path fill="#010101" d="M116.807,92.097L85.408,44.508c-0.396-0.633-1.451-0.633-1.848,0L70.131,64.84v0.023l-3.627,5.475
		L41.798,26.562C41.61,26.21,41.235,26,40.838,26s-0.772,0.21-0.982,0.562L2.841,92.167c-0.188,0.353-0.188,0.772,0,1.122
		c0.21,0.327,0.585,0.539,0.959,0.539h74.053c0.021,0,0.045,0,0.045,0h37.998c0.396,0,0.771-0.235,0.959-0.585
		C117.066,92.892,117.043,92.446,116.807,92.097z M84.498,47.127l9.381,14.249l-9.756,4.282l0.678-3.066
		c0.094-0.375-0.023-0.772-0.303-1.028c-0.281-0.281-0.68-0.374-1.055-0.281L73.57,63.67L84.498,47.127z M40.838,29.369
		l13.033,23.116l-14.859,7.933l0.469-6.106c0.022-0.375-0.142-0.75-0.446-0.982c-0.304-0.234-0.701-0.281-1.076-0.141L24.46,58.406
		L40.838,29.369z M5.72,91.605L22.728,61.47l14.39-5.569l-0.491,6.365c-0.025,0.397,0.162,0.795,0.514,1.03
		c0.188,0.116,0.397,0.162,0.608,0.162c0.187,0,0.352-0.046,0.514-0.116l16.707-8.915l20.987,37.179H5.72z M78.506,91.605
		L67.723,72.49l0.139-0.142l3.906-5.941l10.484-2.55l-0.773,3.462c-0.094,0.42,0.068,0.843,0.375,1.099
		c0.211,0.165,0.467,0.259,0.725,0.259c0.139,0,0.303-0.025,0.445-0.094l12.096-5.311l18.693,28.333H78.506z"/>
	<path fill="#A65F54" d="M75.957,91.605H5.72L22.728,61.47l14.39-5.569l-0.491,6.365c-0.025,0.397,0.162,0.795,0.514,1.03
		c0.188,0.116,0.397,0.162,0.608,0.162c0.187,0,0.352-0.046,0.514-0.116l16.707-8.915L75.957,91.605z"/>
	<path fill="#8F4C45" d="M113.813,91.605H78.506L67.723,72.49l0.139-0.142l3.906-5.941l10.484-2.55l-0.773,3.462
		c-0.094,0.42,0.068,0.843,0.375,1.099c0.211,0.165,0.467,0.259,0.725,0.259c0.139,0,0.303-0.025,0.445-0.094l12.096-5.311
		L113.813,91.605z"/>
	<path fill="#DAF0F1" d="M84.123,65.658l0.678-3.066c0.094-0.375-0.023-0.772-0.303-1.028c-0.281-0.281-0.68-0.374-1.055-0.281
		L73.57,63.67l10.928-16.543l9.381,14.249L84.123,65.658z"/>
	<path fill="#DAF0F1" d="M39.012,60.417l0.469-6.106c0.022-0.375-0.142-0.75-0.446-0.982c-0.304-0.234-0.701-0.281-1.076-0.141
		L24.46,58.406l16.378-29.038l13.033,23.116L39.012,60.417z"/>
</g>
</svg>
