<?xml version="1.0" encoding="utf-8"?>
<!-- Generator: Adobe Illustrator 16.0.0, SVG Export Plug-In . SVG Version: 6.00 Build 0)  -->
<!DOCTYPE svg PUBLIC "-//W3C//DTD SVG 1.1//EN" "http://www.w3.org/Graphics/SVG/1.1/DTD/svg11.dtd">
<svg version="1.1" id="Layer_1" xmlns="http://www.w3.org/2000/svg" xmlns:xlink="http://www.w3.org/1999/xlink" x="0px" y="0px"
	 width="120px" height="120px" viewBox="0 0 120 120" enable-background="new 0 0 120 120" xml:space="preserve">
<g>
	<path fill="#F2F2F2" d="M38.576,69.883c-8.765,0-15.875,7.111-15.875,15.844c0,8.766,7.11,15.875,15.875,15.875
		c8.734,0,15.844-7.109,15.844-15.875C54.42,76.994,47.31,69.883,38.576,69.883z M38.576,98.641
		c-7.143,0-12.913-5.801-12.913-12.914c0-7.109,5.771-12.881,12.913-12.881c7.112,0,12.881,5.771,12.881,12.881
		C51.457,92.84,45.688,98.641,38.576,98.641z"/>
	<path fill="#F2F2F2" d="M64.525,68.137H60.44c-2.871,0-5.21,2.34-5.21,5.209c0,2.838,2.339,5.178,5.21,5.178h4.085
		c2.872,0,5.178-2.34,5.178-5.178C69.703,70.477,67.397,68.137,64.525,68.137z M64.525,75.561H60.44c-1.249,0-2.246-1-2.246-2.215
		c0-1.246,0.998-2.244,2.246-2.244h4.085c1.215,0,2.214,0.998,2.214,2.244C66.739,74.561,65.74,75.561,64.525,75.561z"/>
	<path fill="#010101" d="M38.576,69.883c-8.765,0-15.875,7.111-15.875,15.844c0,8.766,7.11,15.875,15.875,15.875
		c8.734,0,15.844-7.109,15.844-15.875C54.42,76.994,47.31,69.883,38.576,69.883z M38.576,98.641
		c-7.143,0-12.913-5.801-12.913-12.914c0-7.109,5.771-12.881,12.913-12.881c7.112,0,12.881,5.771,12.881,12.881
		C51.457,92.84,45.688,98.641,38.576,98.641z"/>
	<path fill="#010101" d="M64.525,68.137H60.44c-2.871,0-5.21,2.34-5.21,5.209c0,2.838,2.339,5.178,5.21,5.178h4.085
		c2.872,0,5.178-2.34,5.178-5.178C69.703,70.477,67.397,68.137,64.525,68.137z M64.525,75.561H60.44c-1.249,0-2.246-1-2.246-2.215
		c0-1.246,0.998-2.244,2.246-2.244h4.085c1.215,0,2.214,0.998,2.214,2.244C66.739,74.561,65.74,75.561,64.525,75.561z"/>
	<path fill="#010101" d="M92.315,49.361c2.869-2.776,5.022-6.331,6.143-10.292c0-0.032,0-0.063,0.031-0.094
		c0.529-1.934,0.813-3.961,0.813-6.051c0-6.612-2.838-12.568-7.331-16.749c0-0.03-0.03-0.03-0.03-0.03
		C87.856,12.339,82.397,10,76.406,10c-5.924,0-11.317,2.309-15.405,6.02c-0.03,0.03-0.03,0.03-0.063,0.063
		c-0.561,0.498-1.092,1.06-1.59,1.622c-0.063,0.03-0.095,0.093-0.157,0.155c-3.524,4.023-5.676,9.294-5.676,15.064
		c0,6.925,3.119,13.131,7.984,17.341c-2.838,1.311-5.49,2.932-7.952,4.865c-1.124-2.4-3.525-4.086-6.363-4.086H29.937
		c-3.867,0-6.986,3.119-6.986,6.986v4.711H7.044c-3.276,0-5.895,2.619-5.895,5.895v35.992c0,3.244,2.619,5.895,5.895,5.895h63.033
		c3.024,0,5.489-2.275,5.833-5.209h40.172c0.81,0,1.498-0.654,1.498-1.496V86.258C117.58,69.727,107.505,55.256,92.315,49.361z
		 M92.099,20.667c2.65,3.369,4.24,7.642,4.24,12.258c0,0.998-0.092,1.997-0.25,2.964c-2.494-2.839-4.118-7.673-4.118-12.851
		C91.971,22.226,92.035,21.446,92.099,20.667z M76.406,12.994c5.026,0,9.576,1.872,13.104,4.928c0,0.032-0.033,0.094-0.033,0.125
		c-3.615,1.685-8.607,2.651-13.752,2.651c-4.462,0-8.705-0.717-12.135-1.996c-0.063-0.313-0.093-0.593-0.155-0.905
		C66.928,14.803,71.448,12.994,76.406,12.994z M56.479,32.924c0-4.616,1.59-8.857,4.241-12.258c0.03,0.032,0.093,0.063,0.155,0.063
		c0.063,0.78,0.125,1.529,0.125,2.309c0,5.271-1.685,10.167-4.241,13.006C56.572,35.014,56.479,33.984,56.479,32.924z M57.54,39.35
		c3.929-3.151,6.425-9.419,6.425-16.312c0-0.375-0.063-0.749-0.063-1.123c3.495,1.123,7.579,1.747,11.822,1.747
		c4.928,0,9.573-0.78,13.377-2.247c-0.03,0.53-0.091,1.06-0.091,1.622c0,6.862,2.461,13.036,6.299,16.219
		c-1.249,3.649-3.524,6.86-6.488,9.232c-0.28,0.093-0.529,0.28-0.719,0.56c-3.305,2.371-7.328,3.807-11.696,3.807
		C67.678,52.855,60.221,47.177,57.54,39.35z M73.008,104.629c0,1.621-1.31,2.93-2.931,2.93H7.044c-1.622,0-2.932-1.309-2.932-2.93
		V68.637c0-1.623,1.31-2.934,2.932-2.934h17.372c0.842,0,1.497-0.686,1.497-1.494v-6.178c0-2.215,1.809-4.023,4.023-4.023h17.249
		c2.058,0,3.711,1.559,3.929,3.556c-0.063,0.313-0.031,0.593,0.094,0.905v5.74c0,0.809,0.655,1.494,1.497,1.494h17.372
		c1.621,0,2.931,1.311,2.931,2.934V104.629z M114.583,102.352H76.005V68.637c0-3.275-2.653-5.895-5.928-5.895H54.17v-4.305
		c3.026-2.589,6.425-4.647,10.106-6.145c3.522,2.215,7.671,3.523,12.13,3.523c4.929,0,9.516-1.59,13.256-4.24
		c14.942,5.021,24.921,18.836,24.921,34.682V102.352z"/>
	<path fill="#414142" d="M61.001,23.038c0,5.271-1.685,10.167-4.241,13.006c-0.188-1.03-0.28-2.059-0.28-3.119
		c0-4.616,1.59-8.857,4.241-12.258c0.03,0.032,0.093,0.063,0.155,0.063C60.938,21.509,61.001,22.258,61.001,23.038z"/>
	<path fill="#414142" d="M89.51,17.922c0,0.032-0.033,0.094-0.033,0.125c-3.615,1.685-8.607,2.651-13.752,2.651
		c-4.462,0-8.705-0.717-12.135-1.996c-0.063-0.313-0.093-0.593-0.155-0.905c3.493-2.994,8.014-4.803,12.972-4.803
		C81.433,12.994,85.982,14.866,89.51,17.922z"/>
	<path fill="#414142" d="M96.339,32.924c0,0.998-0.092,1.997-0.25,2.964c-2.494-2.839-4.118-7.673-4.118-12.851
		c0-0.812,0.064-1.591,0.128-2.371C94.749,24.035,96.339,28.309,96.339,32.924z"/>
	<path fill="#EDDCA7" d="M95.31,39.257c-1.249,3.649-3.524,6.86-6.488,9.232c-0.28,0.093-0.529,0.28-0.719,0.56
		c-3.305,2.371-7.328,3.807-11.696,3.807c-8.729,0-16.186-5.678-18.867-13.506c3.929-3.151,6.425-9.419,6.425-16.312
		c0-0.375-0.063-0.749-0.063-1.123c3.495,1.123,7.579,1.747,11.822,1.747c4.928,0,9.573-0.78,13.377-2.247
		c-0.03,0.53-0.091,1.06-0.091,1.622C89.011,29.9,91.472,36.074,95.31,39.257z"/>
	<path fill="#5AC0DD" d="M114.583,86.258v16.094H76.005V68.637c0-3.275-2.653-5.895-5.928-5.895H54.17v-4.305
		c3.026-2.589,6.425-4.647,10.106-6.145c3.522,2.215,7.671,3.523,12.13,3.523c4.929,0,9.516-1.59,13.256-4.24
		C104.604,56.597,114.583,70.412,114.583,86.258z"/>
	<path fill="#BA8E67" d="M70.077,65.703H52.706c-0.842,0-1.497-0.686-1.497-1.494v-5.74c-0.125-0.313-0.157-0.592-0.094-0.905
		c-0.218-1.997-1.872-3.556-3.929-3.556H29.937c-2.214,0-4.023,1.809-4.023,4.023v6.178c0,0.809-0.655,1.494-1.497,1.494H7.044
		c-1.622,0-2.932,1.311-2.932,2.934v35.992c0,1.621,1.31,2.93,2.932,2.93h63.033c1.621,0,2.931-1.309,2.931-2.93V68.637
		C73.008,67.014,71.698,65.703,70.077,65.703z M38.576,101.602c-8.765,0-15.875-7.109-15.875-15.875
		c0-8.732,7.11-15.844,15.875-15.844c8.734,0,15.844,7.111,15.844,15.844C54.42,94.492,47.31,101.602,38.576,101.602z
		 M64.525,78.523H60.44c-2.871,0-5.21-2.34-5.21-5.178c0-2.869,2.339-5.209,5.21-5.209h4.085c2.872,0,5.178,2.34,5.178,5.209
		C69.703,76.184,67.397,78.523,64.525,78.523z"/>
	<path fill="#B3E0E1" d="M66.739,73.346c0,1.215-0.999,2.215-2.214,2.215H60.44c-1.249,0-2.246-1-2.246-2.215
		c0-1.246,0.998-2.244,2.246-2.244h4.085C65.74,71.102,66.739,72.1,66.739,73.346z"/>
	<path fill="#B3E0E1" d="M51.457,85.727c0,7.113-5.769,12.914-12.881,12.914c-7.143,0-12.913-5.801-12.913-12.914
		c0-7.109,5.771-12.881,12.913-12.881C45.688,72.846,51.457,78.617,51.457,85.727z"/>
</g>
</svg>
