<?xml version="1.0" encoding="utf-8"?>
<!-- Generator: Adobe Illustrator 16.0.0, SVG Export Plug-In . SVG Version: 6.00 Build 0)  -->
<!DOCTYPE svg PUBLIC "-//W3C//DTD SVG 1.1//EN" "http://www.w3.org/Graphics/SVG/1.1/DTD/svg11.dtd">
<svg version="1.1" id="Layer_1" xmlns="http://www.w3.org/2000/svg" xmlns:xlink="http://www.w3.org/1999/xlink" x="0px" y="0px"
	 width="120px" height="120px" viewBox="0 0 120 120" enable-background="new 0 0 120 120" xml:space="preserve">
<g>
	<path fill="#010101" d="M75.561,13.626"/>
</g>
<g>
	<path fill="#010101" d="M105.608,45.643c0-0.345-0.143-0.719-0.43-0.947l-6.326-5.782l3.996-7.618
		c0.144-0.317,0.174-0.719,0.057-1.064c-0.112-0.345-0.402-0.604-0.747-0.75l-7.908-3.277l1.123-8.483
		c0.057-0.373-0.059-0.747-0.289-1.033c-0.258-0.258-0.604-0.432-0.949-0.46l-8.595-0.346l-1.813-8.396
		c-0.085-0.345-0.314-0.662-0.633-0.833c-0.317-0.202-0.688-0.23-1.064-0.115l-8.165,2.588l-4.601-7.248
		c-0.202-0.314-0.517-0.517-0.894-0.604c-0.343-0.056-0.719,0.028-1.006,0.258L60.55,6.796l-6.787-5.263
		c-0.286-0.23-0.66-0.314-1.034-0.258c-0.345,0.087-0.662,0.29-0.865,0.604l-4.6,7.248l-8.166-2.588
		c-0.374-0.116-0.747-0.087-1.064,0.115c-0.317,0.171-0.548,0.488-0.632,0.833l-1.812,8.396l-8.599,0.346
		c-0.346,0.028-0.69,0.171-0.949,0.46c-0.23,0.287-0.345,0.66-0.286,1.033l1.148,8.483l-7.936,3.277
		c-0.346,0.146-0.632,0.404-0.747,0.75c-0.116,0.345-0.116,0.747,0.056,1.064l3.999,7.59l-6.326,5.81
		c-0.29,0.228-0.433,0.602-0.433,0.947c0,0.373,0.144,0.719,0.433,0.98l6.326,5.779l-3.999,7.619
		c-0.171,0.316-0.171,0.689-0.056,1.035c0.115,0.373,0.401,0.633,0.719,0.775l7.936,3.252l-1.12,8.511
		c-0.059,0.374,0.056,0.747,0.286,1.006c0.259,0.289,0.604,0.461,0.949,0.488l8.568,0.346l1.842,8.396
		c0.084,0.347,0.314,0.663,0.632,0.835c0.317,0.201,0.69,0.229,1.064,0.114l2.387-0.746l-7.188,29.3
		c-0.115,0.488,0.056,0.977,0.402,1.295c0.373,0.345,0.893,0.432,1.351,0.258l8.744-3.451l6.181,7.104
		c0.258,0.287,0.603,0.461,0.977,0.461c0.116,0,0.202-0.03,0.317-0.059c0.489-0.115,0.862-0.489,0.977-0.949l7.304-29.877
		l7.331,29.877c0.116,0.46,0.489,0.834,0.979,0.949c0.088,0.028,0.202,0.059,0.317,0.059c0.373,0,0.719-0.174,0.978-0.461
		l6.183-7.104l8.741,3.451c0.462,0.174,0.979,0.087,1.323-0.258c0.375-0.318,0.545-0.807,0.43-1.295l-7.188-29.3l2.387,0.746
		c0.376,0.115,0.747,0.087,1.064-0.114c0.318-0.172,0.548-0.488,0.633-0.835l1.813-8.396l8.566-0.346
		c0.373-0.027,0.72-0.199,0.978-0.46c0.23-0.287,0.346-0.66,0.289-1.034l-1.151-8.511l7.937-3.252
		c0.345-0.143,0.635-0.402,0.747-0.775c0.117-0.346,0.087-0.719-0.057-1.035l-3.996-7.619l6.326-5.779
		C105.466,46.362,105.608,46.016,105.608,45.643z M51.292,114.886l-5.12-5.865c-0.374-0.401-0.949-0.573-1.466-0.343l-7.248,2.844
		l6.959-28.438l2.847-0.893l4.6,7.247c0.203,0.317,0.52,0.517,0.865,0.604c0.374,0.028,0.748-0.028,1.034-0.259l4.543-3.509
		L51.292,114.886z M83.67,111.493l-7.245-2.815c-0.52-0.202-1.096-0.059-1.469,0.343l-5.119,5.865l-7.015-28.611l4.542,3.509
		c0.23,0.172,0.517,0.259,0.807,0.259h0.199c0.377-0.087,0.691-0.286,0.894-0.604l4.601-7.247l2.848,0.893L83.67,111.493z
		 M96.322,51.167c-0.432,0.402-0.547,1.033-0.258,1.581l3.766,7.217l-7.535,3.078c-0.544,0.228-0.861,0.803-0.805,1.407l1.092,8.082
		l-8.166,0.314c-0.572,0.031-1.092,0.46-1.207,1.035l-1.753,7.968l-7.764-2.475c-0.576-0.17-1.18,0.057-1.497,0.575l-4.369,6.872
		l-6.041-4.658c-0.028-0.028-0.028-0.028-0.028-0.028c-0.028-0.115-0.056-0.203-0.114-0.258c-0.057-0.088-0.115-0.115-0.144-0.175
		c-0.087-0.084-0.144-0.144-0.23-0.2c-0.06-0.03-0.114-0.059-0.203-0.086c-0.055-0.028-0.114-0.087-0.198-0.087c0,0-0.028,0-0.059,0
		c-0.087-0.028-0.171-0.028-0.258-0.028c-0.087,0-0.143,0-0.23,0.028c-0.028,0-0.057,0-0.057,0c-0.086,0-0.143,0.059-0.23,0.087
		c-0.059,0.027-0.115,0.056-0.174,0.086c-0.087,0.057-0.171,0.144-0.23,0.2c-0.056,0.06-0.084,0.115-0.143,0.175
		c-0.056,0.055-0.084,0.143-0.115,0.258c0,0-0.028,0-0.028,0.028l-6.041,4.658l-4.37-6.872c-0.315-0.519-0.921-0.745-1.494-0.575
		l-7.764,2.475l-1.755-7.968c-0.116-0.575-0.632-1.004-1.236-1.035l-8.138-0.314l1.093-8.082c0.059-0.604-0.258-1.18-0.807-1.407
		l-7.562-3.078l3.796-7.217c0.287-0.548,0.171-1.179-0.258-1.581l-6.041-5.523l6.041-5.49c0.43-0.404,0.545-1.037,0.258-1.584
		l-3.765-7.217l7.531-3.106c0.548-0.202,0.866-0.775,0.807-1.378l-1.093-8.083l8.166-0.345c0.576,0,1.093-0.43,1.208-1.006
		l1.755-7.964l7.764,2.443c0.573,0.202,1.179-0.028,1.494-0.547l4.37-6.872l6.47,4.976c0.46,0.374,1.124,0.374,1.583,0l6.471-4.976
		l4.369,6.872c0.317,0.52,0.921,0.75,1.497,0.547l7.764-2.443l1.753,7.964c0.115,0.576,0.635,1.006,1.207,1.037l8.166,0.314
		l-1.092,8.083c-0.057,0.603,0.261,1.176,0.805,1.407l7.535,3.078l-3.766,7.217c-0.289,0.547-0.174,1.18,0.258,1.584l6.037,5.49
		L96.322,51.167z"/>
	<path fill="#E24C4B" d="M92.295,63.042l7.535-3.078l-3.766-7.217c-0.289-0.548-0.174-1.179,0.258-1.581l6.037-5.523l-6.037-5.49
		c-0.432-0.404-0.547-1.037-0.258-1.584l3.766-7.217l-7.535-3.078c-0.544-0.23-0.861-0.804-0.805-1.407l1.092-8.083l-8.166-0.314
		c-0.572-0.031-1.092-0.461-1.207-1.037l-1.753-7.964l-7.764,2.443c-0.576,0.202-1.18-0.028-1.497-0.547l-4.369-6.872l-6.471,4.976
		c-0.46,0.374-1.123,0.374-1.583,0l-6.47-4.976l-4.37,6.872c-0.315,0.52-0.921,0.75-1.494,0.547l-7.764-2.443l-1.755,7.964
		c-0.116,0.576-0.632,1.006-1.208,1.006l-8.166,0.345l1.093,8.083c0.059,0.603-0.258,1.176-0.807,1.378l-7.531,3.106l3.765,7.217
		c0.287,0.547,0.171,1.18-0.258,1.584l-6.041,5.49l6.041,5.523c0.43,0.402,0.545,1.033,0.258,1.581l-3.796,7.217l7.562,3.078
		c0.548,0.228,0.866,0.803,0.807,1.407l-1.093,8.082l8.138,0.314c0.604,0.031,1.121,0.46,1.236,1.035l1.755,7.968l7.764-2.475
		c0.573-0.17,1.179,0.057,1.494,0.575l4.37,6.872l6.041-4.658c0-0.028,0.028-0.028,0.028-0.028c0.031-0.115,0.06-0.203,0.115-0.258
		c0.059-0.06,0.087-0.115,0.143-0.175c0.059-0.057,0.143-0.144,0.23-0.2c0.059-0.03,0.115-0.059,0.174-0.086
		c0.087-0.028,0.144-0.087,0.23-0.087c0,0,0.028,0,0.057,0c0.087-0.028,0.143-0.028,0.23-0.028c0.087,0,0.171,0,0.258,0.028
		c0.031,0,0.059,0,0.059,0c0.084,0,0.144,0.059,0.198,0.087c0.089,0.027,0.144,0.056,0.203,0.086c0.087,0.057,0.144,0.116,0.23,0.2
		c0.028,0.06,0.087,0.087,0.144,0.175c0.059,0.055,0.086,0.143,0.114,0.258c0,0,0,0,0.028,0.028l6.041,4.658l4.369-6.872
		c0.317-0.519,0.921-0.745,1.497-0.575l7.764,2.475l1.753-7.968c0.115-0.575,0.635-1.004,1.207-1.035l8.166-0.314l-1.092-8.082
		C91.434,63.845,91.751,63.27,92.295,63.042z M60.55,77.678c-17.626,0-32.004-14.378-32.004-32.035
		c0-17.626,14.378-32.004,32.004-32.004c17.655,0,32.032,14.377,32.032,32.004C92.582,63.3,78.205,77.678,60.55,77.678z"/>
	<path fill="#AB3736" d="M83.67,111.493l-7.245-2.815c-0.52-0.202-1.096-0.059-1.469,0.343l-5.119,5.865l-7.015-28.611l4.542,3.509
		c0.23,0.172,0.517,0.259,0.807,0.259h0.199c0.377-0.087,0.691-0.286,0.894-0.604l4.601-7.247l2.848,0.893L83.67,111.493z"/>
	<path fill="#AB3736" d="M58.306,86.274l-7.014,28.611l-5.12-5.865c-0.374-0.401-0.949-0.573-1.466-0.343l-7.248,2.844l6.959-28.438
		l2.847-0.893l4.6,7.247c0.203,0.317,0.52,0.517,0.865,0.604c0.374,0.028,0.748-0.028,1.034-0.259L58.306,86.274z"/>
	<path fill="#010101" d="M60.55,13.639c-17.626,0-32.004,14.377-32.004,32.004c0,17.657,14.378,32.035,32.004,32.035
		c17.655,0,32.032-14.378,32.032-32.035C92.582,28.017,78.205,13.639,60.55,13.639z M60.55,75.177
		c-16.275,0-29.501-13.258-29.501-29.534c0-16.273,13.226-29.502,29.501-29.502c16.276,0,29.534,13.229,29.534,29.502
		C90.084,61.919,76.826,75.177,60.55,75.177z"/>
	<path fill="#FBE97F" d="M60.55,16.141c-16.275,0-29.501,13.229-29.501,29.502c0,16.276,13.226,29.534,29.501,29.534
		c16.276,0,29.534-13.258,29.534-29.534C90.084,29.37,76.826,16.141,60.55,16.141z M80.968,38.974L52.96,59.015
		c-0.433,0.317-0.978,0.489-1.497,0.489c-0.143,0-0.286,0-0.46-0.028c-0.66-0.115-1.264-0.519-1.665-1.092L41.514,47.14
		c-0.803-1.18-0.517-2.789,0.663-3.623c1.179-0.807,2.788-0.52,3.594,0.66l6.323,9.115l25.851-18.548
		c1.152-0.832,2.761-0.545,3.596,0.607C82.374,36.528,82.116,38.14,80.968,38.974z"/>
	<path fill="#010101" d="M80.968,38.974L52.96,59.015c-0.433,0.317-0.978,0.489-1.497,0.489c-0.143,0-0.286,0-0.46-0.028
		c-0.66-0.115-1.264-0.519-1.665-1.092L41.514,47.14c-0.803-1.18-0.517-2.789,0.663-3.623c1.179-0.807,2.788-0.52,3.594,0.66
		l6.323,9.115l25.851-18.548c1.152-0.832,2.761-0.545,3.596,0.607C82.374,36.528,82.116,38.14,80.968,38.974z"/>
</g>
</svg>
