<?xml version="1.0" encoding="utf-8"?>
<!-- Generator: Adobe Illustrator 16.0.0, SVG Export Plug-In . SVG Version: 6.00 Build 0)  -->
<!DOCTYPE svg PUBLIC "-//W3C//DTD SVG 1.1//EN" "http://www.w3.org/Graphics/SVG/1.1/DTD/svg11.dtd">
<svg version="1.1" id="Layer_1" xmlns="http://www.w3.org/2000/svg" xmlns:xlink="http://www.w3.org/1999/xlink" x="0px" y="0px"
	 width="120px" height="120px" viewBox="0 0 120 120" enable-background="new 0 0 120 120" xml:space="preserve">
<g>
	<path fill="#010101" d="M76.406,10"/>
</g>
<g>
	<path fill="#BA8E67" d="M111.739,58.656c-0.113-0.088-0.23-0.205-0.318-0.322l-14.93-22.251l-0.233-0.322l-1.315-1.924
		c-3.002-3.792-7.61-6.066-12.509-6.066c-7.814,0-14.581,5.803-15.749,13.502c0,0.03,0,0.059-0.028,0.087
		c-0.057,0.205-0.148,0.409-0.262,0.556c-0.061,0.086-0.148,0.174-0.234,0.232c-0.233,0.175-0.523,0.291-0.849,0.291h-0.202
		c-0.031,0-0.06,0-0.088-0.028c-3.179-0.7-6.563-0.7-9.74-0.058c-0.028,0.027-0.059,0.027-0.087,0.027H55.02
		c-0.176,0-0.32-0.027-0.467-0.086c-0.146-0.03-0.293-0.117-0.409-0.205c-0.146-0.088-0.231-0.204-0.32-0.35
		c-0.087-0.146-0.175-0.291-0.175-0.467c-0.029-0.029-0.029-0.029-0.029-0.059c-1.224-7.786-7.844-13.443-15.748-13.443
		c-5.396,0-10.382,2.683-13.357,7.202c0,0.03,0,0.059-0.03,0.088L8.038,59.531l-0.03,0.027c-2.129,3.586-3.237,7.641-3.237,11.867
		c0,12.922,10.499,23.422,23.447,23.422c12.628,0,22.894-9.859,23.417-22.459v-0.086c0.03-0.146,0.059-0.262,0.088-0.377
		c0.029-0.09,0.087-0.174,0.174-0.266c0.03-0.113,0.118-0.203,0.205-0.262c0.117-0.115,0.262-0.203,0.409-0.262
		c0.028-0.029,0.087-0.059,0.115-0.059c0.059,0,0.088-0.027,0.147-0.027c0.582-0.148,1.166-0.322,1.75-0.439
		c4.287-0.904,8.808-0.758,12.976,0.525c0.06,0,0.12,0,0.177,0.027c0.028,0,0.057,0.031,0.088,0.061
		c0.089,0,0.174,0.059,0.231,0.117c0.091,0.027,0.176,0.084,0.205,0.176c0.088,0.057,0.147,0.113,0.176,0.174
		c0.058,0.088,0.117,0.145,0.146,0.234c0.06,0.057,0.088,0.145,0.088,0.23c0.058,0.119,0.058,0.232,0.058,0.352
		c0.555,12.541,10.851,22.34,23.419,22.34c12.921,0,23.447-10.5,23.447-23.422C115.533,66.85,114.22,62.447,111.739,58.656z
		 M28.043,92.719c-11.607,0-21.027-9.451-21.027-21.027c0-11.605,9.42-21.027,21.027-21.027c11.578,0,21.026,9.422,21.026,21.027
		C49.07,83.268,39.622,92.719,28.043,92.719z M59.772,67.285c-3.528,0-6.444-2.885-6.444-6.441c0-3.561,2.916-6.447,6.444-6.447
		c3.559,0,6.445,2.887,6.445,6.447C66.218,64.4,63.331,67.285,59.772,67.285z M91.679,92.719c-11.58,0-21.029-9.451-21.029-21.027
		c0-11.605,9.449-21.027,21.029-21.027c11.605,0,21.055,9.422,21.055,21.027C112.733,83.268,103.284,92.719,91.679,92.719z"/>
	<path fill="#5AC0DD" d="M43.996,71.691c0,3.613-1.079,7.086-3.121,10.033c-0.292,0.377-0.699,0.582-1.138,0.582
		c-0.291,0-0.554-0.059-0.788-0.234c-0.641-0.439-0.786-1.311-0.349-1.926c1.72-2.506,2.625-5.422,2.625-8.455
		c0-3.383-1.079-6.533-3.15-9.188c-0.496-0.584-0.379-1.459,0.204-1.922c0.614-0.467,1.488-0.383,1.954,0.232
		C42.712,63.934,43.996,67.695,43.996,71.691z"/>
	<path fill="#5AC0DD" d="M28.043,50.664c-11.607,0-21.027,9.422-21.027,21.027c0,11.576,9.42,21.027,21.027,21.027
		c11.578,0,21.026-9.451,21.026-21.027C49.07,60.086,39.622,50.664,28.043,50.664z M28.043,89.947
		c-10.062,0-18.257-8.193-18.257-18.256s8.195-18.257,18.257-18.257c10.061,0,18.255,8.194,18.255,18.257
		S38.104,89.947,28.043,89.947z"/>
	<path fill="#5AC0DD" d="M59.772,54.396c-3.528,0-6.444,2.887-6.444,6.447c0,3.557,2.916,6.441,6.444,6.441
		c3.559,0,6.445-2.885,6.445-6.441C66.218,57.283,63.331,54.396,59.772,54.396z M59.772,64.518c-2.013,0-3.646-1.664-3.646-3.674
		c0-2.014,1.633-3.674,3.646-3.674c2.042,0,3.676,1.66,3.676,3.674C63.448,62.854,61.814,64.518,59.772,64.518z"/>
	<path fill="#5AC0DD" d="M107.396,71.691c0,3.613-1.079,7.086-3.15,10.033c-0.262,0.377-0.697,0.582-1.136,0.582
		c-0.262,0-0.524-0.059-0.786-0.234c-0.615-0.439-0.792-1.311-0.354-1.926c1.749-2.506,2.654-5.422,2.654-8.455
		c0-3.383-1.107-6.533-3.178-9.188c-0.468-0.584-0.351-1.459,0.233-1.922c0.612-0.467,1.486-0.383,1.953,0.232
		C106.084,63.934,107.396,67.695,107.396,71.691z"/>
	<path fill="#5AC0DD" d="M91.679,50.664c-11.58,0-21.029,9.422-21.029,21.027c0,11.576,9.449,21.027,21.029,21.027
		c11.605,0,21.055-9.451,21.055-21.027C112.733,60.086,103.284,50.664,91.679,50.664z M91.679,89.947
		c-10.063,0-18.256-8.193-18.256-18.256s8.193-18.257,18.256-18.257c10.087,0,18.255,8.194,18.255,18.257
		S101.766,89.947,91.679,89.947z"/>
	<g>
		<path fill="#010101" d="M54.407,72.48c0,0.348-0.03,0.67-0.059,1.02c-1.05,13.59-12.366,24.117-26.13,24.117
			C13.753,97.617,2,85.865,2,71.426c0-5.684,1.778-11.078,5.133-15.629l0.175-0.177l0.059-0.057c0.496-0.407,1.194-0.438,1.72-0.028
			c0.612,0.438,0.729,1.31,0.292,1.925c-0.497,0.669-0.962,1.37-1.341,2.071l-0.03,0.027c-2.129,3.586-3.237,7.641-3.237,11.867
			c0,12.922,10.499,23.422,23.447,23.422c12.628,0,22.894-9.859,23.417-22.459v-0.086c0.03-0.146,0.059-0.262,0.088-0.377
			c0.029-0.09,0.087-0.174,0.174-0.266c0.03-0.113,0.118-0.203,0.205-0.262c0.117-0.115,0.262-0.203,0.409-0.262
			c0.174-0.086,0.349-0.115,0.554-0.115C53.823,71.051,54.436,71.721,54.407,72.48z"/>
	</g>
	<g>
		<path fill="#010101" d="M118.302,71.426c0,14.439-11.779,26.191-26.216,26.191c-13.736,0-25.022-10.471-26.131-24.031
			c-0.028-0.348-0.028-0.67-0.057-1.02c-0.028-0.758,0.553-1.43,1.311-1.459c0.088,0,0.176,0.029,0.29,0.029
			c0.091,0.027,0.177,0.059,0.265,0.088c0.089,0,0.174,0.059,0.231,0.117c0.091,0.057,0.147,0.115,0.205,0.176
			c0.088,0.057,0.147,0.113,0.176,0.174c0.058,0.088,0.117,0.145,0.146,0.234c0.06,0.057,0.088,0.145,0.088,0.23
			c0.058,0.119,0.058,0.232,0.058,0.352c0.555,12.541,10.851,22.34,23.419,22.34c12.921,0,23.447-10.5,23.447-23.422
			c0-4.576-1.313-8.979-3.794-12.77c-0.057-0.148-0.142-0.262-0.23-0.382c-0.436-0.641-0.265-1.486,0.351-1.925
			c0.495-0.348,1.168-0.319,1.604,0.06c0.116,0.06,0.233,0.174,0.321,0.321C116.729,61.076,118.302,66.148,118.302,71.426z"/>
	</g>
	<g>
		<path fill="#010101" d="M56.361,40.777c0.116,0.73-0.379,1.429-1.08,1.576c-0.028,0.027-0.059,0.027-0.087,0.027H55.02
			c-0.176,0-0.32-0.027-0.467-0.086c-0.146-0.03-0.293-0.117-0.409-0.205c-0.115-0.117-0.231-0.232-0.32-0.35
			c-0.087-0.146-0.146-0.291-0.175-0.467c-0.029-0.029-0.029-0.029-0.029-0.059c-1.224-7.786-7.844-13.443-15.748-13.443
			c-5.396,0-10.382,2.683-13.357,7.202c0,0.03,0,0.059-0.03,0.088c-0.438,0.612-1.283,0.816-1.924,0.379
			c-0.612-0.409-0.817-1.196-0.437-1.837l0.057-0.088C25.651,28.18,31.514,25,37.872,25c8.808,0,16.244,5.979,18.197,14.406
			C56.186,39.846,56.272,40.311,56.361,40.777z"/>
	</g>
	<g>
		<path fill="#010101" d="M28.043,50.664c-11.607,0-21.027,9.422-21.027,21.027c0,11.576,9.42,21.027,21.027,21.027
			c11.578,0,21.026-9.451,21.026-21.027C49.07,60.086,39.622,50.664,28.043,50.664z M28.043,89.947
			c-10.062,0-18.257-8.193-18.257-18.256s8.195-18.257,18.257-18.257c10.061,0,18.255,8.194,18.255,18.257
			S38.104,89.947,28.043,89.947z"/>
		<path fill="#B3E0E1" d="M28.043,53.435c-10.062,0-18.257,8.194-18.257,18.257s8.195,18.256,18.257,18.256
			c10.061,0,18.255-8.193,18.255-18.256S38.104,53.435,28.043,53.435z M40.875,81.725c-0.292,0.377-0.699,0.582-1.138,0.582
			c-0.291,0-0.554-0.059-0.788-0.234c-0.641-0.439-0.786-1.311-0.349-1.926c1.72-2.506,2.625-5.422,2.625-8.455
			c0-3.383-1.079-6.533-3.15-9.188c-0.496-0.584-0.379-1.459,0.204-1.922c0.614-0.467,1.488-0.383,1.954,0.232
			c2.479,3.119,3.764,6.881,3.764,10.877C43.996,75.305,42.917,78.777,40.875,81.725z"/>
	</g>
	<g>
		<path fill="#010101" d="M43.996,71.691c0,3.613-1.079,7.086-3.121,10.033c-0.292,0.377-0.699,0.582-1.138,0.582
			c-0.291,0-0.554-0.059-0.788-0.234c-0.641-0.439-0.786-1.311-0.349-1.926c1.72-2.506,2.625-5.422,2.625-8.455
			c0-3.383-1.079-6.533-3.15-9.188c-0.496-0.584-0.379-1.459,0.204-1.922c0.614-0.467,1.488-0.383,1.954,0.232
			C42.712,63.934,43.996,67.695,43.996,71.691z"/>
	</g>
	<g>
		<path fill="#010101" d="M107.396,71.691c0,3.613-1.079,7.086-3.15,10.033c-0.262,0.377-0.697,0.582-1.136,0.582
			c-0.262,0-0.524-0.059-0.786-0.234c-0.615-0.439-0.792-1.311-0.354-1.926c1.749-2.506,2.654-5.422,2.654-8.455
			c0-3.383-1.107-6.533-3.178-9.188c-0.468-0.584-0.351-1.459,0.233-1.922c0.612-0.467,1.486-0.383,1.953,0.232
			C106.084,63.934,107.396,67.695,107.396,71.691z"/>
	</g>
	<g>
		<path fill="#010101" d="M59.772,54.396c-3.528,0-6.444,2.887-6.444,6.447c0,3.557,2.916,6.441,6.444,6.441
			c3.559,0,6.445-2.885,6.445-6.441C66.218,57.283,63.331,54.396,59.772,54.396z M59.772,64.518c-2.013,0-3.646-1.664-3.646-3.674
			c0-2.014,1.633-3.674,3.646-3.674c2.042,0,3.676,1.66,3.676,3.674C63.448,62.854,61.814,64.518,59.772,64.518z"/>
		<path fill="#414142" d="M63.448,60.844c0,2.01-1.634,3.674-3.676,3.674c-2.013,0-3.646-1.664-3.646-3.674
			c0-2.014,1.633-3.674,3.646-3.674C61.814,57.17,63.448,58.83,63.448,60.844z"/>
	</g>
	<g>
		<path fill="#010101" d="M91.679,50.664c-11.58,0-21.029,9.422-21.029,21.027c0,11.576,9.449,21.027,21.029,21.027
			c11.605,0,21.055-9.451,21.055-21.027C112.733,60.086,103.284,50.664,91.679,50.664z M91.679,89.947
			c-10.063,0-18.256-8.193-18.256-18.256s8.193-18.257,18.256-18.257c10.087,0,18.255,8.194,18.255,18.257
			S101.766,89.947,91.679,89.947z"/>
		<path fill="#B3E0E1" d="M91.679,53.435c-10.063,0-18.256,8.194-18.256,18.257s8.193,18.256,18.256,18.256
			c10.087,0,18.255-8.193,18.255-18.256S101.766,53.435,91.679,53.435z M104.246,81.725c-0.262,0.377-0.697,0.582-1.136,0.582
			c-0.262,0-0.524-0.059-0.786-0.234c-0.615-0.439-0.792-1.311-0.354-1.926c1.749-2.506,2.654-5.422,2.654-8.455
			c0-3.383-1.107-6.533-3.178-9.188c-0.468-0.584-0.351-1.459,0.233-1.922c0.612-0.467,1.486-0.383,1.953,0.232
			c2.45,3.119,3.763,6.881,3.763,10.877C107.396,75.305,106.317,78.777,104.246,81.725z"/>
	</g>
	<g>
		<path fill="#010101" d="M98.12,36.287c-0.638,0.379-1.486,0.145-1.862-0.526l-1.315-1.924c-3.002-3.792-7.61-6.066-12.509-6.066
			c-7.814,0-14.581,5.803-15.749,13.502c0,0.03,0,0.059-0.028,0.087c-0.057,0.205-0.148,0.409-0.262,0.556
			c-0.061,0.086-0.148,0.174-0.234,0.232c-0.233,0.175-0.523,0.291-0.849,0.291h-0.202c-0.031,0-0.06,0-0.088-0.028
			c-0.7-0.146-1.196-0.817-1.076-1.546c0.085-0.466,0.173-0.963,0.29-1.429C66.16,31.096,73.742,25,82.434,25
			c6.676,0,12.891,3.587,16.214,9.392v0.028C99.026,35.091,98.793,35.908,98.12,36.287z"/>
	</g>
	<g>
		<path fill="#010101" d="M24.515,34.974c0,0.03,0,0.059-0.03,0.088L8.038,59.531l-0.03,0.027c-0.292,0.408-0.729,0.613-1.166,0.613
			c-0.262,0-0.526-0.086-0.788-0.234c-0.612-0.438-0.788-1.281-0.351-1.925l1.605-2.393l0.059-0.057l14.757-21.959l0.057-0.088
			c0.438-0.641,1.283-0.788,1.925-0.379C24.718,33.545,24.894,34.361,24.515,34.974z"/>
	</g>
	<g>
		<path fill="#010101" d="M113.346,58.713c-0.233,0.146-0.495,0.234-0.786,0.234c-0.293,0-0.587-0.117-0.82-0.291
			c-0.113-0.088-0.23-0.205-0.318-0.322L96.258,35.761l-1.315-1.924c-0.436-0.642-0.262-1.488,0.353-1.925
			c0.639-0.437,1.516-0.262,1.926,0.379l1.427,2.101v0.028l14.815,21.989l0.262,0.379C114.16,57.4,113.989,58.274,113.346,58.713z"
			/>
	</g>
	<g>
		<path fill="#010101" d="M66.656,41.36c-0.057,0.205-0.148,0.409-0.262,0.556c-0.061,0.086-0.148,0.174-0.234,0.232
			c-0.233,0.175-0.523,0.291-0.849,0.291c-0.113,0-0.202,0-0.29-0.028c-3.179-0.7-6.563-0.7-9.74-0.058
			c-0.087,0.027-0.176,0.027-0.262,0.027c-0.176,0-0.32-0.027-0.467-0.086c-0.146-0.03-0.293-0.117-0.409-0.205
			c-0.115-0.117-0.231-0.232-0.32-0.35c-0.087-0.146-0.146-0.291-0.175-0.467c-0.174-0.759,0.321-1.488,1.079-1.633
			c0.437-0.088,0.874-0.176,1.341-0.234c2.684-0.406,5.454-0.379,8.167,0.03c0.438,0.087,0.905,0.175,1.37,0.263
			C66.365,39.874,66.83,40.604,66.656,41.36z"/>
	</g>
	<g>
		<path fill="#010101" d="M68.667,72.508c0,0.146-0.028,0.264-0.058,0.408c-0.176,0.584-0.729,0.963-1.344,0.963
			c-0.114,0-0.262,0-0.404-0.061c-0.294-0.086-0.587-0.174-0.906-0.232c-3.762-0.992-7.816-1.02-11.606-0.086
			c-0.32,0.057-0.612,0.145-0.935,0.232c-0.757,0.234-1.516-0.205-1.72-0.934c-0.028-0.145-0.059-0.262-0.059-0.41v-0.086
			c0.03-0.146,0.059-0.262,0.088-0.377c0.029-0.09,0.087-0.174,0.174-0.266c0.03-0.113,0.118-0.203,0.205-0.262
			c0.117-0.115,0.262-0.203,0.409-0.262c0.028-0.029,0.087-0.059,0.115-0.059c4.813-1.4,10.092-1.4,14.872,0.059
			c0.06,0,0.12,0,0.177,0.027c0.028,0,0.057,0.031,0.088,0.061c0.089,0,0.174,0.059,0.231,0.117
			c0.091,0.057,0.147,0.115,0.205,0.176c0.088,0.057,0.147,0.113,0.176,0.174c0.058,0.088,0.117,0.145,0.146,0.234
			c0.06,0.057,0.088,0.145,0.088,0.23C68.667,72.275,68.667,72.389,68.667,72.508z"/>
	</g>
</g>
</svg>
