<?xml version="1.0" encoding="utf-8"?>
<!-- Generator: Adobe Illustrator 16.0.0, SVG Export Plug-In . SVG Version: 6.00 Build 0)  -->
<!DOCTYPE svg PUBLIC "-//W3C//DTD SVG 1.1//EN" "http://www.w3.org/Graphics/SVG/1.1/DTD/svg11.dtd">
<svg version="1.1" id="Layer_1" xmlns="http://www.w3.org/2000/svg" xmlns:xlink="http://www.w3.org/1999/xlink" x="0px" y="0px"
	 width="120px" height="120px" viewBox="0 0 120 120" enable-background="new 0 0 120 120" xml:space="preserve">
<g>
	<path fill="#010101" d="M76.406,10"/>
</g>
<g>
	<path fill="#010101" d="M78.418,32.218c0.066-0.035,0.103-0.068,0.136-0.103L91.075,14.89c0.1-0.135,0.136-0.271,0.201-0.406
		c0-0.034,0.033-0.034,0.033-0.068v-0.033c0.037-0.135,0.037-0.271,0.07-0.371V13.74c-0.033-0.102-0.07-0.203-0.104-0.306
		c-0.033-0.101-0.065-0.203-0.102-0.269c-0.033-0.103-0.1-0.136-0.169-0.238c-0.066-0.068-0.136-0.168-0.237-0.236
		c-0.033-0.035-0.033-0.035-0.033-0.035c-0.066-0.067-0.169-0.067-0.234-0.134c-0.103-0.034-0.173-0.102-0.239-0.102l-7.376-2.302
		l0.675-2.538c0.172-0.71-0.168-1.454-0.81-1.826c-9.24-5.01-23.418-4.637-25.722-2.708c-0.473,0.407-0.776,1.354-0.575,1.963
		c0.271,0.812,1.051,1.388,2.099,2.199c0.34,0.271,0.912,0.678,1.319,1.049c-0.268,0.068-0.642,0.136-1.114,0.204
		c-6.703,0.981-19.191,0-19.323-0.035c-0.578-0.033-1.154,0.238-1.491,0.745c-0.304,0.474-0.337,1.117-0.069,1.624l10.899,20.237
		C38.552,44.976,26.708,63.96,26.708,77.091c0,22.707,16.346,41.188,36.449,41.188c20.101,0,36.446-18.48,36.446-41.188
		C99.603,64.366,88.436,46.025,78.418,32.218z M87.149,14.823l-8.665,11.912l3.556-13.503L87.149,14.823z M42.105,11.845
		c4.23,0.237,12.049,0.541,17.125-0.203c1.759-0.271,3.824-0.778,4.23-2.503c0.44-1.625-0.879-2.876-2.303-3.994
		c3.962-0.406,12.218-0.304,18.953,2.877l-5.754,21.826c-3.281,0.982-6.97,1.489-10.695,1.523l2.067-18.477
		c0.102-0.88-0.543-1.692-1.422-1.794c-0.813-0.101-1.658,0.542-1.762,1.422l-2.131,18.781c-3.011-0.203-5.988-0.71-8.662-1.523
		L42.105,11.845z M63.156,115.06c-18.309,0-33.233-17.021-33.233-37.969c0-12.218,11.472-30.525,21.356-44.062
		c0.44,0.135,0.913,0.203,1.352,0.338l-9.508,24.535c-0.304,0.813,0.099,1.762,0.945,2.065c0.168,0.066,0.374,0.133,0.575,0.133
		c0.644,0,1.252-0.403,1.49-1.045l7.31-18.919l1.692,20.542c0.066,0.811,0.777,1.454,1.59,1.454h0.136
		c0.912-0.069,1.557-0.847,1.491-1.725l-2.168-26.33c1.762,0.271,3.556,0.441,5.347,0.474c0.07,0.033,0.104,0.067,0.136,0.067h0.205
		c0.066,0,0.132-0.035,0.201-0.035c4.468,0.103,9.003-0.405,12.962-1.556c9.914,13.536,21.352,31.844,21.352,44.062
		C96.386,98.039,81.498,115.06,63.156,115.06z"/>
	<path fill="#A65F54" d="M96.386,77.091c0,20.948-14.888,37.969-33.229,37.969c-18.309,0-33.233-17.021-33.233-37.969
		c0-12.218,11.472-30.525,21.356-44.062c0.44,0.135,0.913,0.203,1.352,0.338l-9.508,24.535c-0.304,0.813,0.099,1.762,0.945,2.065
		c0.168,0.066,0.374,0.133,0.575,0.133c0.644,0,1.252-0.403,1.49-1.045l7.31-18.919l1.692,20.542
		c0.066,0.811,0.777,1.454,1.59,1.454h0.136c0.912-0.069,1.557-0.847,1.491-1.725l-2.168-26.33c1.762,0.271,3.556,0.441,5.347,0.474
		c0.07,0.033,0.104,0.067,0.136,0.067h0.205c0.066,0,0.132-0.035,0.201-0.035c4.468,0.103,9.003-0.405,12.962-1.556
		C84.948,46.565,96.386,64.873,96.386,77.091z"/>
	<polygon fill="#A65F54" points="87.149,14.823 78.484,26.735 82.04,13.231 	"/>
	<path fill="#A65F54" d="M80.11,8.021l-5.754,21.826c-3.281,0.982-6.97,1.489-10.695,1.523l2.067-18.477
		c0.102-0.88-0.543-1.692-1.422-1.794c-0.813-0.101-1.658,0.542-1.762,1.422l-2.131,18.781c-3.011-0.203-5.988-0.71-8.662-1.523
		l-9.646-17.936c4.23,0.237,12.049,0.541,17.125-0.203c1.759-0.271,3.824-0.778,4.23-2.503c0.44-1.625-0.879-2.876-2.303-3.994
		C65.119,4.738,73.375,4.841,80.11,8.021z"/>
</g>
</svg>
