<?xml version="1.0" encoding="utf-8"?>
<!-- Generator: Adobe Illustrator 16.0.0, SVG Export Plug-In . SVG Version: 6.00 Build 0)  -->
<!DOCTYPE svg PUBLIC "-//W3C//DTD SVG 1.1//EN" "http://www.w3.org/Graphics/SVG/1.1/DTD/svg11.dtd">
<svg version="1.1" id="Layer_1" xmlns="http://www.w3.org/2000/svg" xmlns:xlink="http://www.w3.org/1999/xlink" x="0px" y="0px"
	 width="120px" height="120px" viewBox="0 0 120 120" enable-background="new 0 0 120 120" xml:space="preserve">
<g>
	<path fill="#B3E0E1" d="M64.608,45.362l-4.104,11.474h-25.74C38.286,53.565,47.672,46.544,64.608,45.362z"/>
	<path fill="#B3E0E1" d="M91.63,48.055c-1.482,2.188-5.258,6.869-11.574,8.78H62.771l4.176-11.599
		C73.942,44.985,82.12,45.739,91.63,48.055z"/>
	<path fill="#EDDCA7" d="M113.472,74.781c-0.479,0.678-1.156,0.98-2.115,0.98h-3.246c-0.553-5.158-4.904-9.182-10.189-9.182
		c-5.307,0-9.662,4.023-10.215,9.182H31.695c-0.555-5.158-4.907-9.182-10.193-9.182c-5.308,0-9.662,4.023-10.214,9.182H4.569
		c0.553-9.359,8.328-16.782,17.815-16.782h57.821c0.102,0,0.201-0.024,0.303-0.051c7.803-2.265,12.053-8.254,13.311-10.341
		c0.957,0.226,1.008,0.252,1.133,0.326c0.402,0.252,1.107,0.73,4.48,2.088c5.434,2.164,10.742,4.832,12.277,5.637l0.957,4.402
		h-1.057c-1.762,0-3.223,1.436-3.223,3.223c0,1.76,1.461,3.221,3.223,3.221h2.291C114.353,69.395,114.704,73.07,113.472,74.781z"/>
	<g>
		<path fill="#010101" d="M115.208,76.039c-0.879,1.234-2.215,1.863-3.852,1.863h-4.275c-0.578,0-1.057-0.479-1.057-1.057
			c0-0.605,0.479-1.084,1.057-1.084h4.275c0.959,0,1.637-0.303,2.115-0.98c1.232-1.711,0.881-5.387,0.43-7.297
			c-0.053-0.303-0.129-0.529-0.203-0.73c-0.201-0.553,0.125-1.182,0.678-1.359c0.102-0.023,0.227-0.049,0.328-0.049
			c0.453,0,0.881,0.275,1.033,0.729c0.074,0.252,0.176,0.629,0.301,1.107C116.489,69.346,116.993,73.549,115.208,76.039z"/>
	</g>
	<g>
		<path fill="#010101" d="M89.796,76.846c0,0.578-0.48,1.057-1.057,1.057H30.688c-0.604,0-1.081-0.479-1.081-1.057
			c0-0.605,0.477-1.084,1.081-1.084h58.052C89.315,75.762,89.796,76.24,89.796,76.846z"/>
	</g>
	<g>
		<path fill="#010101" d="M114.202,63.15c-0.076,0.025-0.152,0.025-0.229,0.025c-0.477,0-0.93-0.352-1.029-0.854l-0.277-1.287
			l-0.957-4.402c-1.535-0.805-6.844-3.471-12.277-5.635c-3.373-1.359-4.078-1.837-4.48-2.089c-0.125-0.076-0.176-0.101-1.133-0.327
			c-1.258,2.089-5.508,8.077-13.311,10.342c-0.102,0.023-0.201,0.051-0.303,0.051H22.385c-9.488,0-17.263,7.421-17.815,16.783h7.75
			c0.578,0,1.057,0.479,1.057,1.082c0,0.578-0.479,1.057-1.057,1.057H3.461c-0.602,0-1.082-0.479-1.082-1.057
			c0-11.047,8.984-20.004,20.005-20.004h57.671c6.316-1.911,10.092-6.593,11.574-8.78c0.479-0.705,0.705-1.158,0.705-1.158
			c0.227-0.453,0.707-0.68,1.182-0.555c0.027,0,0.027,0,0.053,0c0.023,0,0.023,0,0.049,0.025c1.939,0.402,2.012,0.429,2.516,0.756
			c0.277,0.176,0.932,0.604,4.102,1.887c6.52,2.592,12.834,5.914,12.908,5.938c0.277,0.152,0.48,0.428,0.555,0.73l1.158,5.384
			l0.174,0.805C115.157,62.445,114.78,63.025,114.202,63.15z"/>
	</g>
	<g>
		<path fill="#010101" d="M94.323,47.651c-0.15,0.58-0.73,0.906-1.311,0.756c-0.477-0.126-0.928-0.227-1.383-0.352
			c-9.51-2.316-17.688-3.07-24.684-2.818c-0.805,0.023-1.584,0.074-2.338,0.125c-16.937,1.183-26.323,8.203-29.844,11.474
			c-1.082,1.032-1.637,1.687-1.661,1.712c-0.202,0.275-0.528,0.428-0.831,0.428c-0.226,0-0.477-0.076-0.653-0.227
			c-0.479-0.379-0.553-1.032-0.202-1.51c0.049-0.051,0.15-0.201,0.327-0.403c2.642-3.069,20.307-21.187,61.772-10.493
			c0.027,0,0.027,0,0.053,0c0.023,0,0.023,0,0.049,0.025C94.146,46.518,94.474,47.098,94.323,47.651z"/>
	</g>
	<path fill="#010101" d="M108.11,75.758c-0.553-5.158-4.904-9.184-10.189-9.184c-5.307,0-9.662,4.025-10.215,9.184
		c-0.023,0.352-0.051,0.729-0.051,1.082c0,0.35,0.027,0.729,0.051,1.057c0.553,5.156,4.908,9.184,10.215,9.184
		c5.285,0,9.637-4.027,10.189-9.184c0.027-0.328,0.053-0.707,0.053-1.057C108.163,76.486,108.138,76.109,108.11,75.758z
		 M97.921,84.939c-4.479,0-8.125-3.646-8.125-8.1c0-4.48,3.646-8.127,8.125-8.127c4.455,0,8.104,3.646,8.104,8.127
		C106.024,81.293,102.376,84.939,97.921,84.939z"/>
	<path fill="#414142" d="M106.024,76.84c0,4.453-3.648,8.1-8.104,8.1c-4.479,0-8.125-3.646-8.125-8.1
		c0-4.48,3.646-8.127,8.125-8.127C102.376,68.713,106.024,72.359,106.024,76.84z"/>
	<path fill="#010101" d="M31.695,75.758c-0.555-5.158-4.907-9.184-10.193-9.184c-5.308,0-9.662,4.025-10.214,9.184
		c-0.025,0.352-0.052,0.729-0.052,1.082c0,0.35,0.027,0.729,0.052,1.057c0.553,5.156,4.907,9.184,10.214,9.184
		c5.286,0,9.638-4.027,10.193-9.184c0.024-0.328,0.049-0.707,0.049-1.057C31.744,76.486,31.719,76.109,31.695,75.758z
		 M21.502,84.939c-4.477,0-8.126-3.646-8.126-8.1c0-4.48,3.649-8.127,8.126-8.127c4.455,0,8.104,3.646,8.104,8.127
		C29.606,81.293,25.957,84.939,21.502,84.939z"/>
	<path fill="#414142" d="M29.606,76.84c0,4.453-3.649,8.1-8.104,8.1c-4.477,0-8.126-3.646-8.126-8.1c0-4.48,3.649-8.127,8.126-8.127
		C25.957,68.713,29.606,72.359,29.606,76.84z"/>
	<g>
		<path fill="#010101" d="M67.198,44.531l-0.252,0.706l-4.176,11.599l-0.504,1.409c-0.15,0.453-0.555,0.73-1.006,0.73
			c-0.129,0-0.253-0.027-0.354-0.076c-0.553-0.201-0.855-0.805-0.654-1.357l0.251-0.706l4.104-11.474l0.553-1.561
			c0.225-0.553,0.83-0.83,1.383-0.629C67.099,43.348,67.376,43.978,67.198,44.531z"/>
	</g>
	<g>
		<path fill="#010101" d="M114.856,61.068c-0.053-0.027-0.102-0.027-0.152-0.027h-3.094c-1.762,0-3.223,1.436-3.223,3.223
			c0,1.76,1.461,3.221,3.223,3.221h3.094c0.479,0,0.932-0.102,1.334-0.303c1.109-0.504,1.887-1.635,1.887-2.918
			C117.925,62.527,116.565,61.119,114.856,61.068z M111.61,65.346c-0.58,0-1.057-0.479-1.057-1.082s0.477-1.082,1.057-1.082h3.094
			c0.604,0,1.084,0.479,1.084,1.082s-0.48,1.082-1.084,1.082H111.61z"/>
		<path fill="#EC2134" d="M115.788,64.264c0,0.604-0.48,1.082-1.084,1.082h-3.094c-0.58,0-1.057-0.479-1.057-1.082
			s0.477-1.082,1.057-1.082h3.094C115.308,63.182,115.788,63.66,115.788,64.264z"/>
	</g>
</g>
</svg>
