<?xml version="1.0" encoding="utf-8"?>
<!-- Generator: Adobe Illustrator 16.0.0, SVG Export Plug-In . SVG Version: 6.00 Build 0)  -->
<!DOCTYPE svg PUBLIC "-//W3C//DTD SVG 1.1//EN" "http://www.w3.org/Graphics/SVG/1.1/DTD/svg11.dtd">
<svg version="1.1" id="Layer_1" xmlns="http://www.w3.org/2000/svg" xmlns:xlink="http://www.w3.org/1999/xlink" x="0px" y="0px"
	 width="120px" height="120px" viewBox="0 0 120 120" enable-background="new 0 0 120 120" xml:space="preserve">
<g>
	<path fill="#010101" d="M75.561,12.474"/>
</g>
<g>
	<path fill="#EDE4CC" d="M31.488,30.5l-17.359-3.742c-0.383-0.089-0.796,0-1.119,0.265c-0.324,0.237-0.501,0.619-0.501,1.031v26.23
		c0,0.676,0.471,1.238,1.12,1.327l17.359,2.976h0.236c0.293,0,0.619-0.089,0.854-0.297c0.295-0.265,0.471-0.647,0.471-1.03V31.797
		C32.549,31.179,32.107,30.617,31.488,30.5z M29.868,55.667L15.19,53.164v-23.43l14.678,3.154V55.667z"/>
	<path fill="#EDE4CC" d="M36.674,70.463c-0.088,0.677-0.647,1.149-1.325,1.149h-0.177l-21.513-3.154
		c-0.737-0.118-1.239-0.795-1.121-1.532c0.089-0.735,0.795-1.27,1.504-1.15l21.513,3.153C36.292,69.048,36.794,69.728,36.674,70.463
		z"/>
	<path fill="#EDE4CC" d="M14.101,60.267l39.845,7.308c0.736,0.117,1.207,0.826,1.09,1.563c-0.148,0.646-0.708,1.091-1.327,1.091
		h-0.265l-39.816-7.31c-0.736-0.148-1.237-0.826-1.09-1.563C12.656,60.619,13.364,60.149,14.101,60.267z"/>
	<g>
		<path fill="#010101" d="M114.537,18.476c-0.296-0.236-0.708-0.354-1.09-0.294l-53.52,9.753L6.379,18.182
			c-0.383-0.06-0.796,0.058-1.091,0.294c-0.295,0.265-0.471,0.647-0.471,1.033v72.851c0,0.648,0.442,1.208,1.089,1.326l1.268,0.235
			v8.224c0,0.737,0.619,1.356,1.356,1.356l50.454,0.439l0.029,0.029h0.914l0.03-0.029l50.453-0.439c0.737,0,1.356-0.619,1.356-1.356
			v-8.075l2.152-0.384c0.648-0.118,1.12-0.678,1.12-1.326V19.508C115.039,19.123,114.862,18.74,114.537,18.476z M9.886,100.817
			v-6.426l37.045,6.749L9.886,100.817z M58.572,100.553L7.499,91.24V21.129l51.073,9.313V100.553z M109.056,100.817l-36.102,0.323
			l36.102-6.571V100.817z M112.328,91.24l-51.074,9.313V30.442l51.074-9.313V91.24z"/>
		<polygon fill="#EDE4CC" points="46.932,101.141 9.886,100.817 9.886,94.392 		"/>
		<polygon fill="#EDE4CC" points="109.056,94.569 109.056,100.817 72.954,101.141 		"/>
		<path fill="#F9F2E2" d="M61.254,30.442v70.111l51.074-9.313V21.129L61.254,30.442z M87.982,55.814l-14.5,2.772h-0.265
			c-0.616,0-1.209-0.443-1.324-1.091c-0.12-0.708,0.352-1.417,1.089-1.563l14.498-2.768c0.709-0.15,1.417,0.354,1.563,1.09
			C89.191,54.959,88.689,55.667,87.982,55.814z M102.452,47.742l-28.998,5.125h-0.236c-0.647,0-1.209-0.441-1.324-1.091
			c-0.12-0.736,0.352-1.442,1.089-1.56l28.999-5.129c0.736-0.146,1.415,0.354,1.565,1.091
			C103.661,46.916,103.189,47.592,102.452,47.742z M102.481,41.995L73.482,47.71c-0.086,0.032-0.176,0.032-0.265,0.032
			c-0.616,0-1.181-0.444-1.324-1.063c-0.12-0.736,0.352-1.444,1.061-1.591l28.998-5.718c0.736-0.147,1.444,0.325,1.595,1.062
			C103.689,41.168,103.218,41.876,102.481,41.995z"/>
		<path fill="#F9F2E2" d="M7.499,21.129V91.24l51.073,9.313V30.442L7.499,21.129z M12.509,28.053c0-0.412,0.178-0.794,0.501-1.031
			c0.323-0.265,0.736-0.354,1.119-0.265L31.488,30.5c0.619,0.118,1.061,0.679,1.061,1.298v25.462c0,0.382-0.176,0.765-0.471,1.03
			c-0.236,0.208-0.561,0.297-0.854,0.297h-0.236L13.628,55.61c-0.648-0.089-1.12-0.65-1.12-1.327V28.053z M35.349,71.612h-0.177
			l-21.513-3.154c-0.737-0.118-1.239-0.795-1.121-1.532c0.089-0.735,0.795-1.27,1.504-1.15l21.513,3.153
			c0.737,0.119,1.239,0.799,1.12,1.534C36.586,71.14,36.027,71.612,35.349,71.612z M53.709,70.228h-0.265l-39.816-7.31
			c-0.736-0.148-1.237-0.826-1.09-1.563c0.118-0.736,0.826-1.206,1.563-1.088l39.845,7.308c0.736,0.117,1.207,0.826,1.09,1.563
			C54.888,69.783,54.328,70.228,53.709,70.228z"/>
		<path fill="#010101" d="M31.488,30.5l-17.359-3.742c-0.383-0.089-0.796,0-1.119,0.265c-0.324,0.237-0.501,0.619-0.501,1.031v26.23
			c0,0.676,0.471,1.238,1.12,1.327l17.359,2.976h0.236c0.293,0,0.619-0.089,0.854-0.297c0.295-0.265,0.471-0.647,0.471-1.03V31.797
			C32.549,31.179,32.107,30.617,31.488,30.5z M29.868,55.667L15.19,53.164v-23.43l14.678,3.154V55.667z"/>
		<polygon fill="#A3DAD4" points="29.868,32.888 29.868,55.667 15.19,53.164 15.19,29.734 		"/>
		<path fill="#010101" d="M55.036,69.137c-0.148,0.646-0.708,1.091-1.327,1.091h-0.265l-39.816-7.31
			c-0.736-0.148-1.237-0.826-1.09-1.563c0.118-0.736,0.826-1.206,1.563-1.088l39.845,7.308C54.682,67.691,55.152,68.4,55.036,69.137
			z"/>
		<path fill="#010101" d="M36.674,70.463c-0.088,0.677-0.647,1.149-1.325,1.149h-0.177l-21.513-3.154
			c-0.737-0.118-1.239-0.795-1.121-1.532c0.089-0.735,0.795-1.27,1.504-1.15l21.513,3.153
			C36.292,69.048,36.794,69.728,36.674,70.463z"/>
		<path fill="#010101" d="M103.547,40.431c0.143,0.737-0.329,1.445-1.065,1.563L73.482,47.71c-0.086,0.032-0.176,0.032-0.265,0.032
			c-0.616,0-1.181-0.444-1.324-1.063c-0.12-0.736,0.352-1.444,1.061-1.591l28.998-5.718
			C102.688,39.223,103.396,39.695,103.547,40.431z"/>
		<path fill="#010101" d="M103.547,46.179c0.114,0.737-0.357,1.414-1.095,1.563l-28.998,5.125h-0.236
			c-0.647,0-1.209-0.441-1.324-1.091c-0.12-0.736,0.352-1.442,1.089-1.56l28.999-5.129
			C102.718,44.941,103.396,45.442,103.547,46.179z"/>
		<path fill="#010101" d="M89.044,54.254c0.147,0.705-0.354,1.413-1.062,1.56l-14.5,2.772h-0.265c-0.616,0-1.209-0.443-1.324-1.091
			c-0.12-0.708,0.352-1.417,1.089-1.563l14.498-2.768C88.189,53.014,88.897,53.518,89.044,54.254z"/>
	</g>
</g>
</svg>
